<svg width="292" height="97" viewBox="0 0 292 97" fill="none" xmlns="http://www.w3.org/2000/svg">
<path fill-rule="evenodd" clip-rule="evenodd" d="M33.3414 72.0976L32.5319 72.2733C27.9576 73.2658 23.8102 73.768 20.0958 73.768C16.4018 73.768 13.3551 73.3139 11.0111 72.3487C8.64608 71.3749 6.77559 69.8102 5.42589 67.6693C4.10955 65.5813 3.2156 63.1515 2.72719 60.3987C2.24396 57.675 2.00781 54.2836 2.00781 50.24C2.00781 41.8102 3.17121 35.6828 5.71408 32.1228L5.71549 32.1208C8.37865 28.4114 13.1514 26.712 19.6478 26.712C23.4173 26.712 27.7434 27.3031 32.6162 28.4674L33.4129 28.6577L33.0864 37.6367L31.978 37.4687C27.781 36.8328 24.3151 36.52 21.5678 36.52C18.834 36.52 17.0974 36.9084 16.1566 37.5132L16.1458 37.5201L16.1348 37.5268C15.2494 38.0643 14.4569 39.1892 13.892 41.1616C13.3754 43.1161 13.0958 46.56 13.0958 51.584C13.0958 56.5972 13.6797 59.8491 14.6796 61.5625C15.609 63.0458 17.5187 63.96 20.8638 63.96C24.3493 63.96 28.0539 63.666 31.979 63.0751L33.0974 62.9068L33.3414 72.0976ZM13.8238 62.08C12.6718 60.1173 12.0958 56.6187 12.0958 51.584C12.0958 46.5493 12.3731 42.9867 12.9278 40.896C13.5251 38.8053 14.4211 37.3973 15.6158 36.672C16.8105 35.904 18.7945 35.52 21.5678 35.52C24.1597 35.52 27.3479 35.7911 31.1325 36.3332C31.4598 36.3801 31.7916 36.4291 32.1278 36.48L32.3838 29.44C27.5625 28.288 23.3171 27.712 19.6478 27.712C13.2905 27.712 8.91715 29.376 6.52781 32.704C4.18115 35.9893 3.00781 41.8347 3.00781 50.24C3.00781 54.2507 3.24248 57.5787 3.71181 60.224C4.18115 62.8693 5.03448 65.1733 6.27181 67.136C7.50915 69.0987 9.21581 70.528 11.3918 71.424C13.5678 72.32 16.4691 72.768 20.0958 72.768C23.7225 72.768 27.7971 72.2773 32.3198 71.296L32.1278 64.064C31.7941 64.1142 31.462 64.1624 31.1313 64.2084C27.5298 64.7094 24.1073 64.96 20.8638 64.96C17.3651 64.96 15.0185 64 13.8238 62.08ZM55.0768 62.6732L55.082 62.6641C55.8413 61.3625 56.2898 59.1715 56.2898 55.936C56.2898 52.6967 55.84 50.5353 55.0883 49.2825L55.0828 49.2734L55.0776 49.2641C54.4584 48.1805 53.3058 47.528 51.2738 47.528C49.2496 47.528 48.063 48.1769 47.4007 49.2735C46.6848 50.5334 46.2578 52.7007 46.2578 55.936C46.2578 59.1679 46.6836 61.3645 47.4068 62.6731C48.0747 63.8108 49.2618 64.472 51.2738 64.472C53.293 64.472 54.4465 63.8076 55.0717 62.6824L55.0768 62.6732ZM46.5378 63.168C45.6845 61.632 45.2578 59.2213 45.2578 55.936C45.2578 52.6507 45.6845 50.2613 46.5378 48.768C47.4338 47.2747 49.0125 46.528 51.2738 46.528C53.5351 46.528 55.0925 47.2747 55.9458 48.768C56.8418 50.2613 57.2898 52.6507 57.2898 55.936C57.2898 59.2213 56.8418 61.632 55.9458 63.168C55.0925 64.704 53.5351 65.472 51.2738 65.472C49.0125 65.472 47.4338 64.704 46.5378 63.168ZM39.1551 43.0358C41.677 39.7549 45.8133 38.232 51.2738 38.232C56.7346 38.232 60.8709 39.755 63.3928 43.0362C65.8382 46.1754 66.9938 50.519 66.9938 55.936C66.9938 61.6703 65.743 66.1579 63.0666 69.2183C60.3677 72.3044 56.3721 73.768 51.2738 73.768C46.1755 73.768 42.1799 72.3044 39.4811 69.2183C36.8046 66.1579 35.5538 61.6703 35.5538 55.936C35.5538 50.5188 36.7096 46.175 39.1551 43.0358ZM62.6018 43.648C60.3405 40.704 56.5645 39.232 51.2738 39.232C45.9831 39.232 42.2071 40.704 39.9458 43.648C37.6845 46.5493 36.5538 50.6453 36.5538 55.936C36.5538 67.1573 41.4605 72.768 51.2738 72.768C61.0871 72.768 65.9938 67.1573 65.9938 55.936C65.9938 50.6453 64.8631 46.5493 62.6018 43.648ZM81.8563 73H71.2803V39H81.7923V40.1073C84.2397 38.8771 86.5769 38.232 88.7923 38.232C93.2418 38.232 96.5882 39.5525 98.465 42.4665C100.242 45.2262 101.056 49.3426 101.056 54.656V73H90.4803V54.912C90.4803 52.2202 90.1584 50.4083 89.6259 49.3432L89.6201 49.3316C89.2003 48.464 88.3563 47.912 86.6803 47.912C85.0474 47.912 83.4793 48.1903 81.97 48.7463L81.9554 48.7517L81.8563 48.7848V73ZM81.7923 41.2326C81.4621 41.4076 81.1288 41.5941 80.7923 41.792V40H72.2803V72H80.8563V48.064L81.6243 47.808C83.2456 47.2107 84.931 46.912 86.6803 46.912C88.6003 46.912 89.8803 47.5733 90.5203 48.896C91.1603 50.176 91.4803 52.1813 91.4803 54.912V72H100.056V54.656C100.056 49.408 99.2456 45.5253 97.6243 43.008C96.003 40.4907 93.059 39.232 88.7923 39.232C86.6424 39.232 84.309 39.8989 81.7923 41.2326ZM126.383 48.296H118.511V60.416C118.511 61.6552 118.532 62.5235 118.569 63.0428C118.621 63.3148 118.746 63.557 118.966 63.784C119.142 63.9327 119.495 64.0862 120.187 64.088L126.007 63.9348L126.493 72.5986L125.666 72.7838C122.79 73.4277 120.526 73.768 118.919 73.768C114.991 73.768 111.976 72.9051 110.276 70.8444L110.268 70.8351C108.628 68.797 107.935 65.2843 107.935 60.608V48.296H104.159V39H107.935V30.104H118.511V39H126.383V48.296ZM117.511 40V31.104H108.935V40H105.159V47.296H108.935V60.608C108.935 65.2587 109.639 68.4587 111.047 70.208C112.455 71.9147 115.079 72.768 118.919 72.768C120.413 72.768 122.589 72.448 125.447 71.808L125.063 64.96L120.199 65.088C119.346 65.088 118.706 64.896 118.279 64.512C117.895 64.128 117.661 63.68 117.575 63.168C117.533 62.6133 117.511 61.696 117.511 60.416V47.296H125.383V40H117.511ZM158.624 65.4995L158.297 73.768H157.336C155.124 73.768 153.292 73.6172 151.868 73.2954L151.861 73.2939C150.602 73.0001 149.35 72.4522 148.106 71.6709C145.07 73.0644 141.957 73.768 138.776 73.768C135.3 73.768 132.513 72.8459 130.609 70.8309C128.715 68.8265 127.856 65.9112 127.856 62.272C127.856 58.7046 128.815 55.9259 130.993 54.251C133.057 52.6221 136.107 51.7444 139.985 51.4825C139.986 51.4824 139.987 51.4823 139.989 51.4823L145.904 51.04V49.984C145.904 48.749 145.615 48.2588 145.39 48.0823L145.373 48.0691L145.357 48.0553C145.031 47.7758 144.369 47.5308 143.148 47.528L130.14 48.0816L129.806 40.332L130.578 40.1228C135.216 38.8659 139.635 38.232 143.832 38.232C148.062 38.232 151.344 39.0961 153.413 41.0635C155.531 43.0367 156.48 46.0924 156.48 49.984V63.2536C156.561 64.1883 156.708 64.7008 156.834 64.93C156.888 64.9943 157.111 65.1809 157.798 65.3254L158.624 65.4995ZM155.992 65.472C155.736 65.0453 155.565 64.32 155.48 63.296V49.984C155.48 46.2293 154.562 43.4987 152.728 41.792C150.936 40.0853 147.97 39.232 143.832 39.232C139.736 39.232 135.405 39.8507 130.84 41.088L131.096 47.04L143.128 46.528C144.45 46.528 145.41 46.784 146.008 47.296C146.605 47.7653 146.904 48.6613 146.904 49.984V51.968L140.056 52.48C136.258 52.736 133.442 53.5893 131.608 55.04C129.773 56.448 128.856 58.8587 128.856 62.272C128.856 69.2693 132.162 72.768 138.776 72.768C141.976 72.768 145.112 72.0213 148.184 70.528C149.506 71.424 150.808 72.0213 152.088 72.32C153.41 72.6187 155.16 72.768 157.336 72.768L157.592 66.304C156.781 66.1333 156.248 65.856 155.992 65.472ZM139.123 60.2343C138.75 60.6336 138.496 61.264 138.496 62.272C138.496 63.3178 138.731 63.9154 139.026 64.2468C139.302 64.5562 139.772 64.792 140.632 64.792C142.149 64.792 143.832 64.5522 145.686 64.0578L145.904 63.9997V59.0118L141.169 59.428M141.08 58.432C138.69 58.6453 137.496 59.9253 137.496 62.272C137.496 64.6187 138.541 65.792 140.632 65.792C142.253 65.792 144.024 65.536 145.944 65.024L146.904 64.768V57.92L141.08 58.432ZM139.123 60.2343C139.498 59.832 140.128 59.5212 141.167 59.4282ZM184.341 39.2772L186.894 39.8447L186.566 48.5262L185.507 48.4189C182.142 48.0782 179.687 47.912 178.119 47.912C175.247 47.912 173.71 48.5496 173.027 49.4372C172.687 49.8865 172.376 50.6216 172.156 51.7304C171.939 52.8289 171.823 54.2256 171.823 55.936C171.823 59.4025 172.3 61.5233 173.036 62.574C173.719 63.4497 175.263 64.083 178.149 64.088L186.568 63.5074L186.895 72.2407L186.056 72.4053C181.475 73.3044 177.92 73.768 175.431 73.768C170.52 73.768 166.755 72.3918 164.407 69.4201L164.401 69.4131L164.396 69.406C162.148 66.4558 161.119 61.8976 161.119 55.936C161.119 49.9749 162.19 45.4424 164.543 42.5691C166.934 39.6077 170.712 38.232 175.623 38.232C177.933 38.232 180.842 38.5861 184.329 39.275L184.341 39.2772ZM165.319 43.2C163.186 45.8027 162.119 50.048 162.119 55.936C162.119 61.824 163.143 66.112 165.191 68.8C167.282 71.4453 170.695 72.768 175.431 72.768C177.821 72.768 181.298 72.32 185.863 71.424L185.607 64.576L178.183 65.088C175.197 65.088 173.213 64.448 172.231 63.168C171.293 61.8453 170.823 59.4347 170.823 55.936C170.823 52.4373 171.293 50.0693 172.231 48.832C173.213 47.552 175.175 46.912 178.119 46.912C179.576 46.912 181.74 47.0499 184.61 47.3256C184.934 47.3566 185.266 47.3894 185.607 47.424L185.863 40.64L184.135 40.256C180.679 39.5733 177.842 39.232 175.623 39.232C170.887 39.232 167.453 40.5547 165.319 43.2ZM210.946 48.296H203.074V60.416C203.074 61.6552 203.094 62.5236 203.131 63.0429C203.184 63.3148 203.308 63.5569 203.528 63.7839C203.705 63.9326 204.058 64.0862 204.749 64.088L210.57 63.9348L211.056 72.5986L210.228 72.7838C207.352 73.4277 205.089 73.768 203.482 73.768C199.553 73.768 196.539 72.9051 194.838 70.8444L194.831 70.8351C193.19 68.797 192.498 65.2843 192.498 60.608V48.296H188.722V39H192.498V30.104H203.074V39H210.946V48.296ZM202.074 40V31.104H193.498V40H189.722V47.296H193.498V60.608C193.498 65.2587 194.202 68.4587 195.61 70.208C197.018 71.9147 199.642 72.768 203.482 72.768C204.975 72.768 207.151 72.448 210.01 71.808L209.626 64.96L204.762 65.088C203.908 65.088 203.268 64.896 202.842 64.512C202.458 64.128 202.223 63.68 202.138 63.168C202.095 62.6133 202.074 61.696 202.074 60.416V47.296H209.946V40H202.074ZM247.473 39H258.049V73H247.537V71.858C244.977 73.1059 242.637 73.768 240.537 73.768C235.953 73.768 232.535 72.5105 230.731 69.654L230.727 69.6474C229.036 66.9225 228.273 62.564 228.273 56.768V39H238.849V56.896C238.849 60.0636 239.115 62.0185 239.531 62.9539C239.801 63.5632 240.514 64.088 242.329 64.088C244.098 64.088 245.754 63.8069 247.303 63.2508L247.325 63.243L247.473 63.1974V39ZM248.473 63.936L247.641 64.192C245.977 64.7893 244.206 65.088 242.329 65.088C240.366 65.088 239.129 64.512 238.617 63.36C238.105 62.208 237.849 60.0533 237.849 56.896V40H229.273V56.768C229.273 62.528 230.041 66.6453 231.577 69.12C233.113 71.552 236.099 72.768 240.537 72.768C242.549 72.768 244.882 72.0922 247.537 70.7407C247.865 70.5735 248.199 70.3959 248.537 70.208V72H257.049V40H248.473V63.936ZM288.924 49.1347L287.816 48.9918C282.523 48.3089 278.869 47.976 276.808 47.976C275.788 47.976 274.975 48.0231 274.355 48.1103C273.729 48.1983 273.39 48.3158 273.239 48.4023C272.996 48.5639 272.816 48.8267 272.816 49.408C272.816 49.6395 272.871 49.7775 272.938 49.8725C273.006 49.9697 273.135 50.0901 273.393 50.2026C274.181 50.4719 276.219 50.924 279.609 51.5599C283.131 52.1693 285.823 53.2177 287.488 54.8344C289.218 56.5137 289.968 59.1206 289.968 62.4C289.968 66.0741 288.818 68.9895 286.379 70.9546C283.982 72.8865 280.5 73.768 276.104 73.768C273.204 73.768 269.724 73.3734 265.678 72.5985C265.677 72.5984 265.676 72.5983 265.676 72.5982L262.786 72.0563L263.112 62.9318L264.2 63.0722C269.494 63.7554 273.104 64.088 275.08 64.088C276.099 64.088 276.925 64.0409 277.569 63.9532C278.22 63.8644 278.616 63.7425 278.828 63.6326C279.303 63.3655 279.456 63.0649 279.456 62.656C279.456 62.4253 279.401 62.2745 279.324 62.1615C279.244 62.0424 279.095 61.9017 278.812 61.7677L278.802 61.7632L278.793 61.7584C278.527 61.6258 277.93 61.4338 276.904 61.1987C275.908 60.9704 274.586 60.7181 272.931 60.4424L272.929 60.442C269.564 59.874 266.916 58.8937 265.104 57.4149C263.138 55.8113 262.304 53.0891 262.304 49.6C262.304 45.9398 263.555 43.0517 266.161 41.1193C268.678 39.2104 271.87 38.296 275.656 38.296C278.264 38.296 281.768 38.714 286.141 39.5286C286.142 39.5287 286.142 39.5288 286.143 39.5289L289.087 40.0642L288.924 49.1347ZM285.96 40.512C281.608 39.7013 278.173 39.296 275.656 39.296C272.029 39.296 269.064 40.1707 266.76 41.92C264.456 43.6267 263.304 46.1867 263.304 49.6C263.304 52.9707 264.114 55.3173 265.736 56.64C267.357 57.9627 269.81 58.9013 273.096 59.456C276.424 60.0107 278.472 60.48 279.24 60.864C280.05 61.248 280.456 61.8453 280.456 62.656C280.456 63.4667 280.072 64.0853 279.304 64.512C278.578 64.896 277.17 65.088 275.08 65.088C273.163 65.088 269.826 64.789 265.068 64.1909C264.743 64.15 264.41 64.1077 264.072 64.064L263.816 71.232L265.864 71.616C269.874 72.384 273.288 72.768 276.104 72.768C284.68 72.768 288.968 69.312 288.968 62.4C288.968 59.2427 288.242 56.96 286.792 55.552C285.341 54.144 282.888 53.1413 279.432 52.544C276.018 51.904 273.885 51.4347 273.032 51.136C272.221 50.7947 271.816 50.2187 271.816 49.408C271.816 48.5547 272.114 47.936 272.712 47.552C273.352 47.168 274.717 46.976 276.808 46.976C278.804 46.976 282.184 47.275 286.946 47.8729C287.272 47.9139 287.605 47.9562 287.944 48L288.072 40.896L285.96 40.512Z" fill="black"/>
</svg>
