<svg width="298" height="97" viewBox="0 0 298 97" fill="none" xmlns="http://www.w3.org/2000/svg">
<path fill-rule="evenodd" clip-rule="evenodd" d="M33.3414 72.0976L32.5319 72.2733C27.9576 73.2658 23.8102 73.768 20.0958 73.768C16.4018 73.768 13.3551 73.3139 11.0111 72.3487C8.64608 71.3749 6.77559 69.8102 5.42589 67.6693C4.10955 65.5813 3.2156 63.1515 2.72719 60.3987C2.24396 57.675 2.00781 54.2836 2.00781 50.24C2.00781 41.8102 3.17121 35.6828 5.71408 32.1228L5.71549 32.1208C8.37865 28.4114 13.1514 26.712 19.6478 26.712C23.4173 26.712 27.7434 27.3031 32.6162 28.4674L33.4129 28.6577L33.0864 37.6367L31.978 37.4687C27.781 36.8328 24.3151 36.52 21.5678 36.52C18.834 36.52 17.0974 36.9084 16.1566 37.5132L16.1458 37.5201L16.1348 37.5268C15.2494 38.0643 14.4569 39.1892 13.892 41.1616C13.3754 43.1161 13.0958 46.56 13.0958 51.584C13.0958 56.5972 13.6797 59.8491 14.6796 61.5625C15.609 63.0458 17.5187 63.96 20.8638 63.96C24.3493 63.96 28.0539 63.666 31.979 63.0751L33.0974 62.9068L33.3414 72.0976ZM13.8238 62.08C12.6718 60.1173 12.0958 56.6187 12.0958 51.584C12.0958 46.5493 12.3731 42.9867 12.9278 40.896C13.5251 38.8053 14.4211 37.3973 15.6158 36.672C16.8105 35.904 18.7945 35.52 21.5678 35.52C24.1597 35.52 27.3479 35.7911 31.1325 36.3332C31.4598 36.3801 31.7916 36.4291 32.1278 36.48L32.3838 29.44C27.5625 28.288 23.3171 27.712 19.6478 27.712C13.2905 27.712 8.91715 29.376 6.52781 32.704C4.18115 35.9893 3.00781 41.8347 3.00781 50.24C3.00781 54.2507 3.24248 57.5787 3.71181 60.224C4.18115 62.8693 5.03448 65.1733 6.27181 67.136C7.50915 69.0987 9.21581 70.528 11.3918 71.424C13.5678 72.32 16.4691 72.768 20.0958 72.768C23.7225 72.768 27.7971 72.2773 32.3198 71.296L32.1278 64.064C31.7941 64.1142 31.462 64.1624 31.1313 64.2084C27.5298 64.7094 24.1073 64.96 20.8638 64.96C17.3651 64.96 15.0185 64 13.8238 62.08ZM56.2228 39H66.7988V73H56.2868V71.858C53.7272 73.1059 51.3872 73.768 49.2868 73.768C44.7031 73.768 41.2854 72.5105 39.4813 69.654L39.4771 69.6474C37.7859 66.9225 37.0228 62.564 37.0228 56.768V39H47.5988V56.896C47.5988 60.0636 47.8649 62.0185 48.2806 62.9539C48.5514 63.5632 49.2643 64.088 51.0788 64.088C52.8482 64.088 54.5039 63.8069 56.0529 63.2508L56.0747 63.243L56.2228 63.1974V39ZM57.2228 63.936L56.3908 64.192C54.7268 64.7893 52.9561 65.088 51.0788 65.088C49.1161 65.088 47.8788 64.512 47.3668 63.36C46.8548 62.208 46.5988 60.0533 46.5988 56.896V40H38.0228V56.768C38.0228 62.528 38.7908 66.6453 40.3268 69.12C41.8628 71.552 44.8495 72.768 49.2868 72.768C51.2992 72.768 53.6325 72.0922 56.2868 70.7407C56.6152 70.5735 56.9486 70.3959 57.2868 70.208V72H65.7988V40H57.2228V63.936ZM97.6735 49.1347L96.5658 48.9918C91.2733 48.3089 87.6195 47.976 85.5578 47.976C84.5379 47.976 83.7245 48.0231 83.1051 48.1103C82.4794 48.1982 82.1404 48.3157 81.9887 48.4022C81.7455 48.5639 81.5658 48.8266 81.5658 49.408C81.5658 49.6395 81.6208 49.7775 81.6876 49.8725C81.756 49.9697 81.8855 50.0901 82.1427 50.2027C82.9312 50.472 84.9688 50.924 88.3591 51.5598C91.881 52.1693 94.5725 53.2177 96.2383 54.8344C97.9684 56.5137 98.7178 59.1206 98.7178 62.4C98.7178 66.0741 97.5675 68.9895 95.1293 70.9546C92.7324 72.8865 89.25 73.768 84.8538 73.768C81.954 73.768 78.4745 73.3734 74.4277 72.5985C74.427 72.5984 74.4264 72.5983 74.4257 72.5982L71.5357 72.0563L71.8616 62.9318L72.9498 63.0722C78.2443 63.7554 81.8543 64.088 83.8298 64.088C84.8489 64.088 85.675 64.0409 86.3187 63.9532C86.97 63.8643 87.3659 63.7424 87.5777 63.6325C88.0533 63.3654 88.2058 63.0649 88.2058 62.656C88.2058 62.4253 88.151 62.2745 88.0743 62.1615C87.9935 62.0424 87.8446 61.9017 87.5617 61.7677L87.5521 61.7632L87.5426 61.7584C87.2774 61.6258 86.6804 61.4338 85.6544 61.1987C84.658 60.9704 83.3359 60.7181 81.6814 60.4424L81.6793 60.442C78.3145 59.874 75.6664 58.8937 73.8537 57.4149C71.888 55.8113 71.0538 53.0891 71.0538 49.6C71.0538 45.9403 72.3042 43.0525 74.9097 41.1201C77.427 39.2106 80.6193 38.296 84.4058 38.296C87.0136 38.296 90.5177 38.714 94.8914 39.5286C94.8919 39.5287 94.8924 39.5288 94.8929 39.5289L97.837 40.0642L97.6735 49.1347ZM94.7098 40.512C90.3578 39.7013 86.9231 39.296 84.4058 39.296C80.7791 39.296 77.8138 40.1707 75.5098 41.92C73.2058 43.6267 72.0538 46.1867 72.0538 49.6C72.0538 52.9707 72.8645 55.3173 74.4858 56.64C76.1071 57.9627 78.5605 58.9013 81.8458 59.456C85.1738 60.0107 87.2218 60.48 87.9898 60.864C88.8005 61.248 89.2058 61.8453 89.2058 62.656C89.2058 63.4667 88.8218 64.0853 88.0538 64.512C87.3285 64.896 85.9205 65.088 83.8298 65.088C81.9129 65.088 78.5756 64.789 73.8179 64.1909C73.4925 64.15 73.1605 64.1077 72.8218 64.064L72.5658 71.232L74.6138 71.616C78.6245 72.384 82.0378 72.768 84.8538 72.768C93.4298 72.768 97.7178 69.312 97.7178 62.4C97.7178 59.2427 96.9925 56.96 95.5418 55.552C94.0911 54.144 91.6378 53.1413 88.1818 52.544C84.7685 51.904 82.6351 51.4347 81.7818 51.136C80.9711 50.7947 80.5658 50.2187 80.5658 49.408C80.5658 48.5547 80.8645 47.936 81.4618 47.552C82.1018 47.168 83.4671 46.976 85.5578 46.976C87.5544 46.976 90.9338 47.275 95.6959 47.8729C96.0221 47.9139 96.3547 47.9562 96.6938 48L96.8218 40.896L94.7098 40.512ZM122.633 48.296H114.761V60.416C114.761 61.6552 114.782 62.5235 114.819 63.0428C114.871 63.3148 114.996 63.557 115.216 63.784C115.392 63.9327 115.745 64.0862 116.437 64.088L122.257 63.9348L122.743 72.5986L121.916 72.7838C119.04 73.4277 116.776 73.768 115.169 73.768C111.241 73.768 108.226 72.9051 106.526 70.8444L106.518 70.8351C104.878 68.797 104.185 65.2843 104.185 60.608V48.296H100.409V39H104.185V30.104H114.761V39H122.633V48.296ZM113.761 40V31.104H105.185V40H101.409V47.296H105.185V60.608C105.185 65.2587 105.889 68.4587 107.297 70.208C108.705 71.9147 111.329 72.768 115.169 72.768C116.663 72.768 118.839 72.448 121.697 71.808L121.313 64.96L116.449 65.088C115.596 65.088 114.956 64.896 114.529 64.512C114.145 64.128 113.911 63.68 113.825 63.168C113.783 62.6133 113.761 61.696 113.761 60.416V47.296H121.633V40H113.761ZM144.077 62.6732L144.082 62.6641C144.841 61.3625 145.29 59.1715 145.29 55.936C145.29 52.6967 144.84 50.5353 144.088 49.2825L144.083 49.2734L144.078 49.2641C143.458 48.1805 142.306 47.528 140.274 47.528C138.25 47.528 137.063 48.1768 136.401 49.2733C135.685 50.5332 135.258 52.7005 135.258 55.936C135.258 59.1678 135.684 61.3644 136.407 62.673C137.075 63.8108 138.262 64.472 140.274 64.472C142.293 64.472 143.447 63.8076 144.072 62.6824L144.077 62.6732ZM135.538 63.168C134.684 61.632 134.258 59.2213 134.258 55.936C134.258 52.6507 134.684 50.2613 135.538 48.768C136.434 47.2747 138.012 46.528 140.274 46.528C142.535 46.528 144.092 47.2747 144.946 48.768C145.842 50.2613 146.29 52.6507 146.29 55.936C146.29 59.2213 145.842 61.632 144.946 63.168C144.092 64.704 142.535 65.472 140.274 65.472C138.012 65.472 136.434 64.704 135.538 63.168ZM128.155 43.0355C130.677 39.7548 134.813 38.232 140.274 38.232C145.734 38.232 149.87 39.7548 152.392 43.0355C154.838 46.1747 155.994 50.5186 155.994 55.936C155.994 61.6703 154.743 66.1579 152.067 69.2183C149.368 72.3044 145.372 73.768 140.274 73.768C135.176 73.768 131.18 72.3044 128.481 69.2183C125.805 66.1579 124.554 61.6703 124.554 55.936C124.554 50.5186 125.71 46.1747 128.155 43.0355ZM128.946 43.648C131.207 40.704 134.983 39.232 140.274 39.232C145.564 39.232 149.34 40.704 151.602 43.648C153.863 46.5493 154.994 50.6453 154.994 55.936C154.994 67.1573 150.087 72.768 140.274 72.768C130.46 72.768 125.554 67.1573 125.554 55.936C125.554 50.6453 126.684 46.5493 128.946 43.648ZM170.856 73H160.28V39H170.792V40.1098C173.205 38.8873 175.396 38.232 177.344 38.232C180.701 38.232 183.472 39.1319 185.538 41.0256C189.311 39.1849 192.835 38.232 196.096 38.232C200.497 38.232 203.816 39.5271 205.695 42.3876C207.53 45.0746 208.36 49.2278 208.36 54.656V73H197.784V54.912C197.784 52.216 197.483 50.3932 196.982 49.3189L196.977 49.3076C196.761 48.8295 196.457 48.5024 196.06 48.2829C195.65 48.056 195.082 47.912 194.304 47.912C193.077 47.912 191.521 48.182 189.616 48.7609L189.391 48.836C189.535 51.6705 189.608 53.8693 189.608 55.424V73H179.032V55.552C179.032 52.4014 178.748 50.3675 178.283 49.2936L178.278 49.2828C178.085 48.8229 177.795 48.5043 177.395 48.2865C176.976 48.0589 176.381 47.912 175.552 47.912C174.011 47.912 172.485 48.1882 170.97 48.7463L170.955 48.7517L170.856 48.7848V73ZM188.352 48.128L189.312 47.808C191.275 47.2107 192.939 46.912 194.304 46.912C196.096 46.912 197.291 47.5733 197.888 48.896C198.486 50.176 198.784 52.1813 198.784 54.912V72H207.36V54.656C207.36 49.28 206.528 45.376 204.864 42.944C203.243 40.4693 200.32 39.232 196.096 39.232C192.854 39.232 189.27 40.2347 185.344 42.24C183.467 40.2347 180.8 39.232 177.344 39.232C175.494 39.232 173.31 39.9001 170.792 41.2364C170.465 41.4103 170.131 41.5955 169.792 41.792V40H161.28V72H169.856V48.064L170.624 47.808C172.246 47.2107 173.888 46.912 175.552 46.912C177.43 46.912 178.646 47.5733 179.2 48.896C179.755 50.176 180.032 52.3947 180.032 55.552V72H188.608V55.424C188.608 53.76 188.523 51.328 188.352 48.128ZM240.44 70.976C235.533 72.1707 231.096 72.768 227.128 72.768C222.306 72.768 218.808 71.488 216.632 68.928C214.456 66.368 213.368 62.208 213.368 56.448C213.368 44.9707 218.082 39.232 227.512 39.232C236.813 39.232 241.464 44.0533 241.464 53.696L240.824 59.648H222.008C222.015 59.9983 222.038 60.3317 222.076 60.648C222.248 62.1039 222.738 63.1999 223.544 63.936C224.568 64.7893 226.018 65.216 227.896 65.216C231.864 65.216 235.405 65.088 238.52 64.832L240.312 64.64L240.44 70.976ZM238.426 63.8364L241.29 63.5295L241.456 71.7578L240.676 71.9476C235.712 73.1563 231.194 73.768 227.128 73.768C222.145 73.768 218.307 72.4431 215.87 69.5756C213.463 66.7443 212.368 62.2905 212.368 56.448C212.368 50.5977 213.565 46.0242 216.131 42.9012C218.728 39.7406 222.585 38.232 227.512 38.232C232.326 38.232 236.118 39.4817 238.696 42.1537C241.267 44.8191 242.464 48.7294 242.464 53.696V53.7496L241.722 60.648H223.083C223.246 61.8658 223.652 62.6722 224.202 63.1824C224.985 63.8263 226.171 64.216 227.896 64.216C231.838 64.216 235.347 64.089 238.426 63.8364ZM231.022 48.4369L231.016 48.4287C230.482 47.7542 229.429 47.272 227.512 47.272C225.665 47.272 224.594 47.7615 224.006 48.4951C223.498 49.1384 223.115 50.2957 222.987 52.12H231.992C231.897 50.2009 231.521 49.0408 231.029 48.4449L231.022 48.4369ZM232.993 52.12C233.008 52.4388 233.016 52.7721 233.016 53.12H221.944C221.95 52.7724 221.963 52.439 221.985 52.12C222.114 50.1681 222.527 48.7521 223.224 47.872C224.077 46.8053 225.506 46.272 227.512 46.272C229.56 46.272 230.989 46.784 231.8 47.808C232.5 48.656 232.898 50.0933 232.993 52.12ZM246.593 73V39H257.105V41.6709C260.223 39.9722 263.239 38.8256 266.151 38.2509L267.345 38.0153V48.6839L266.55 48.8507C263.123 49.57 260.195 50.3075 257.762 51.0617L257.169 51.2695V73H246.593ZM256.169 50.56L257.449 50.112C259.923 49.344 262.889 48.5973 266.345 47.872V39.232C266.013 39.2974 265.68 39.3707 265.345 39.4517C262.709 40.0893 259.962 41.21 257.105 42.8136C256.773 42.9999 256.44 43.1927 256.105 43.392V40H247.593V72H256.169V50.56ZM295.361 49.1347L294.253 48.9918C288.961 48.3089 285.307 47.976 283.245 47.976C282.225 47.976 281.412 48.0231 280.793 48.1103C280.167 48.1983 279.828 48.3158 279.676 48.4023C279.433 48.5639 279.253 48.8267 279.253 49.408C279.253 49.6395 279.308 49.7775 279.375 49.8725C279.444 49.9697 279.573 50.0901 279.83 50.2026C280.619 50.4719 282.656 50.924 286.047 51.5599C289.569 52.1693 292.26 53.2177 293.926 54.8344C295.656 56.5137 296.405 59.1206 296.405 62.4C296.405 66.0741 295.255 68.9895 292.817 70.9546C290.42 72.8865 286.937 73.768 282.541 73.768C279.641 73.768 276.162 73.3734 272.115 72.5985C272.115 72.5984 272.114 72.5983 272.113 72.5982L269.223 72.0563L269.549 62.9318L270.637 63.0722C275.932 63.7554 279.542 64.088 281.517 64.088C282.536 64.088 283.362 64.0409 284.006 63.9532C284.657 63.8644 285.053 63.7425 285.265 63.6326C285.741 63.3655 285.893 63.0649 285.893 62.656C285.893 62.4253 285.839 62.2745 285.762 62.1615C285.681 62.0424 285.532 61.9017 285.249 61.7677L285.24 61.7632L285.23 61.7584C284.965 61.6258 284.368 61.4338 283.342 61.1987C282.346 60.9704 281.023 60.7181 279.369 60.4424L279.367 60.442C276.002 59.874 273.354 58.8937 271.541 57.4149C269.576 55.8113 268.741 53.0891 268.741 49.6C268.741 45.9398 269.992 43.0517 272.598 41.1193C275.115 39.2104 278.307 38.296 282.093 38.296C284.701 38.296 288.205 38.714 292.579 39.5286C292.579 39.5287 292.58 39.5288 292.58 39.5289L295.524 40.0642L295.361 49.1347ZM292.397 40.512C288.045 39.7013 284.611 39.296 282.093 39.296C278.467 39.296 275.501 40.1707 273.197 41.92C270.893 43.6267 269.741 46.1867 269.741 49.6C269.741 52.9707 270.552 55.3173 272.173 56.64C273.795 57.9627 276.248 58.9013 279.533 59.456C282.861 60.0107 284.909 60.48 285.677 60.864C286.488 61.248 286.893 61.8453 286.893 62.656C286.893 63.4667 286.509 64.0853 285.741 64.512C285.016 64.896 283.608 65.088 281.517 65.088C279.6 65.088 276.263 64.789 271.505 64.1909C271.18 64.15 270.848 64.1077 270.509 64.064L270.253 71.232L272.301 71.616C276.312 72.384 279.725 72.768 282.541 72.768C291.117 72.768 295.405 69.312 295.405 62.4C295.405 59.2427 294.68 56.96 293.229 55.552C291.779 54.144 289.325 53.1413 285.869 52.544C282.456 51.904 280.323 51.4347 279.469 51.136C278.659 50.7947 278.253 50.2187 278.253 49.408C278.253 48.5547 278.552 47.936 279.149 47.552C279.789 47.168 281.155 46.976 283.245 46.976C285.242 46.976 288.621 47.275 293.383 47.8729C293.71 47.9139 294.042 47.9562 294.381 48L294.509 40.896L292.397 40.512Z" fill="black"/>
</svg>
