<svg width="439" height="97" viewBox="0 0 439 97" fill="none" xmlns="http://www.w3.org/2000/svg">
<path fill-rule="evenodd" clip-rule="evenodd" d="M14.5678 73H3.73584V27.48H20.7358C26.0464 27.48 30.2142 28.7746 33.05 31.5401C35.8904 34.3101 37.2238 38.3887 37.2238 43.584C37.2238 48.8314 35.8541 53.0187 32.9743 55.9916C30.1236 58.9358 25.9842 60.328 20.7358 60.328H14.5678V73ZM13.5678 59.328H20.7358C25.8132 59.328 29.6532 57.984 32.2558 55.296C34.9012 52.5653 36.2238 48.6613 36.2238 43.584C36.2238 33.5147 31.0612 28.48 20.7358 28.48H4.73584V72H13.5678V59.328ZM24.9239 38.4968L24.9179 38.49C24.1088 37.5838 22.7692 37.032 20.6718 37.032H14.5678V50.776H20.6718C22.6505 50.776 23.975 50.172 24.8368 49.1011C25.7319 47.9887 26.2638 46.2068 26.2638 43.584C26.2638 40.9822 25.739 39.3771 24.9301 38.5034L24.9239 38.4968ZM13.5678 51.776V36.032H20.6718C22.9332 36.032 24.5972 36.6293 25.6638 37.824C26.7305 38.976 27.2638 40.896 27.2638 43.584C27.2638 49.0453 25.0665 51.776 20.6718 51.776H13.5678ZM40.6553 73V39H51.1673V41.6709C54.2857 39.9722 57.3019 38.8256 60.2137 38.2509L61.4073 38.0153V48.6839L60.6127 48.8507C57.1853 49.57 54.2576 50.3075 51.8248 51.0618L51.2313 51.2695V73H40.6553ZM50.2313 50.56L51.5113 50.112C53.986 49.344 56.9513 48.5973 60.4073 47.872V39.232C60.0758 39.2974 59.7425 39.3707 59.4073 39.4517C56.7711 40.0893 54.0244 41.21 51.1673 42.8137C50.8355 42.9999 50.5022 43.1927 50.1673 43.392V40H41.6553V72H50.2313V50.56ZM82.3268 62.6732L82.3321 62.6641C83.0913 61.3625 83.5398 59.1715 83.5398 55.936C83.5398 52.6967 83.09 50.5353 82.3383 49.2825L82.3329 49.2734L82.3276 49.2641C81.7084 48.1805 80.5558 47.528 78.5238 47.528C76.4997 47.528 75.313 48.1769 74.6508 49.2735C73.9348 50.5334 73.5078 52.7007 73.5078 55.936C73.5078 59.1678 73.9336 61.3644 74.6568 62.673C75.3246 63.8108 76.5117 64.472 78.5238 64.472C80.543 64.472 81.6966 63.8076 82.3217 62.6824L82.3268 62.6732ZM73.7878 48.768C74.6838 47.2747 76.2625 46.528 78.5238 46.528C80.7852 46.528 82.3425 47.2747 83.1958 48.768C84.0918 50.2613 84.5398 52.6507 84.5398 55.936C84.5398 59.2213 84.0918 61.632 83.1958 63.168C82.3425 64.704 80.7852 65.472 78.5238 65.472C76.2625 65.472 74.6838 64.704 73.7878 63.168C72.9345 61.632 72.5078 59.2213 72.5078 55.936C72.5078 52.6507 72.9345 50.2613 73.7878 48.768ZM66.4048 43.0362C68.9268 39.755 73.0631 38.232 78.5238 38.232C83.9842 38.232 88.1203 39.7548 90.6423 43.0355C93.088 46.1747 94.2438 50.5186 94.2438 55.936C94.2438 61.6703 92.993 66.1579 90.3166 69.2183C87.6178 72.3044 83.6221 73.768 78.5238 73.768C73.4256 73.768 69.4299 72.3044 66.7311 69.2183C64.0546 66.1579 62.8038 61.6703 62.8038 55.936C62.8038 50.519 63.9595 46.1754 66.4048 43.0362ZM67.1958 43.648C64.9345 46.5493 63.8038 50.6453 63.8038 55.936C63.8038 67.1573 68.7105 72.768 78.5238 72.768C88.3372 72.768 93.2438 67.1573 93.2438 55.936C93.2438 50.6453 92.1132 46.5493 89.8518 43.648C87.5905 40.704 83.8145 39.232 78.5238 39.232C73.2332 39.232 69.4572 40.704 67.1958 43.648ZM98.5943 39H109.17V70.528C109.17 74.9537 108.397 78.4133 106.673 80.7187C105.03 83.0137 101.816 85.2976 97.2289 87.6128L96.3574 88.0526L92.0762 80.0556L92.8316 79.5519C94.7463 78.2755 96.0296 77.3121 96.7317 76.649C97.3771 76.0394 97.8433 75.3069 98.1337 74.4358L98.1378 74.4235C98.4239 73.6008 98.5943 72.3045 98.5943 70.464V39ZM105.866 80.128C107.402 78.08 108.17 74.88 108.17 70.528V40H99.5943V70.464C99.5943 72.3413 99.4237 73.7707 99.0823 74.752C98.741 75.776 98.1863 76.6507 97.4183 77.376C96.6503 78.1013 95.3063 79.104 93.3863 80.384L96.7783 86.7199C101.344 84.4159 104.373 82.2187 105.866 80.128ZM98.5943 36.904V26.2H109.17V36.904H98.5943ZM141.565 70.976C136.658 72.1707 132.221 72.768 128.253 72.768C123.432 72.768 119.933 71.488 117.757 68.928C115.581 66.368 114.493 62.208 114.493 56.448C114.493 44.9707 119.208 39.232 128.637 39.232C137.938 39.232 142.589 44.0533 142.589 53.696L141.949 59.648H123.133C123.141 59.9983 123.163 60.3317 123.201 60.648C123.373 62.1039 123.863 63.1999 124.669 63.936C125.693 64.7893 127.144 65.216 129.021 65.216C132.989 65.216 136.53 65.088 139.645 64.832L141.437 64.64L141.565 70.976ZM139.551 63.8364L142.415 63.5295L142.581 71.7578L141.801 71.9476C136.837 73.1563 132.319 73.768 128.253 73.768C123.27 73.768 119.432 72.4431 116.995 69.5756C114.588 66.7443 113.493 62.2905 113.493 56.448C113.493 50.5977 114.69 46.0242 117.256 42.9012C119.853 39.7406 123.711 38.232 128.637 38.232C133.451 38.232 137.243 39.4817 139.821 42.1537C142.392 44.8191 143.589 48.7294 143.589 53.696V53.7496L142.847 60.648H124.208C124.371 61.8658 124.777 62.6722 125.327 63.1824C126.11 63.8263 127.296 64.216 129.021 64.216C132.963 64.216 136.472 64.089 139.551 63.8364ZM132.147 48.4369L132.141 48.4287C131.607 47.7542 130.554 47.272 128.637 47.272C126.79 47.272 125.72 47.7612 125.132 48.4944C124.623 49.1376 124.24 50.2951 124.112 52.12H133.117C133.022 50.2009 132.646 49.0408 132.154 48.4449L132.147 48.4369ZM134.118 52.12C134.133 52.4388 134.141 52.7721 134.141 53.12H123.069C123.075 52.7724 123.088 52.439 123.11 52.12C123.239 50.1681 123.652 48.7521 124.349 47.872C125.202 46.8053 126.632 46.272 128.637 46.272C130.685 46.272 132.114 46.784 132.925 47.808C133.625 48.656 134.023 50.0933 134.118 52.12ZM169.403 39.2772L171.957 39.8447L171.629 48.5262L170.569 48.4189C167.204 48.0782 164.75 47.912 163.182 47.912C160.309 47.912 158.773 48.5496 158.09 49.4372C157.749 49.8865 157.439 50.6216 157.219 51.7304C157.001 52.8289 156.886 54.2256 156.886 55.936C156.886 59.4025 157.363 61.5233 158.099 62.574C158.781 63.4497 160.325 64.083 163.212 64.088L171.631 63.5074L171.957 72.2407L171.118 72.4053C166.537 73.3044 162.983 73.768 160.494 73.768C155.582 73.768 151.818 72.3918 149.469 69.4201L149.464 69.4131L149.458 69.406C147.211 66.4558 146.182 61.8976 146.182 55.936C146.182 49.9749 147.253 45.4424 149.606 42.5691C151.996 39.6077 155.775 38.232 160.686 38.232C162.996 38.232 165.904 38.5861 169.392 39.275L169.403 39.2772ZM150.382 43.2C148.249 45.8027 147.182 50.048 147.182 55.936C147.182 61.824 148.206 66.112 150.254 68.8C152.345 71.4453 155.758 72.768 160.494 72.768C162.883 72.768 166.361 72.32 170.926 71.424L170.67 64.576L163.246 65.088C160.259 65.088 158.275 64.448 157.294 63.168C156.355 61.8453 155.886 59.4347 155.886 55.936C155.886 52.4373 156.355 50.0693 157.294 48.832C158.275 47.552 160.238 46.912 163.182 46.912C164.639 46.912 166.803 47.0499 169.673 47.3256C169.996 47.3566 170.329 47.3894 170.67 47.424L170.926 40.64L169.198 40.256C165.742 39.5733 162.905 39.232 160.686 39.232C155.95 39.232 152.515 40.5547 150.382 43.2ZM196.008 48.296H188.136V60.416C188.136 61.6552 188.157 62.5236 188.194 63.0429C188.246 63.3148 188.371 63.5569 188.591 63.7839C188.767 63.9326 189.12 64.0862 189.812 64.088L195.632 63.9348L196.118 72.5986L195.291 72.7838C192.415 73.4277 190.151 73.768 188.544 73.768C184.616 73.768 181.601 72.9051 179.901 70.8444L179.893 70.8351C178.253 68.797 177.56 65.2843 177.56 60.608V48.296H173.784V39H177.56V30.104H188.136V39H196.008V48.296ZM187.136 40V31.104H178.56V40H174.784V47.296H178.56V60.608C178.56 65.2587 179.264 68.4587 180.672 70.208C182.08 71.9147 184.704 72.768 188.544 72.768C190.038 72.768 192.214 72.448 195.072 71.808L194.688 64.96L189.824 65.088C188.971 65.088 188.331 64.896 187.904 64.512C187.52 64.128 187.286 63.68 187.2 63.168C187.158 62.6133 187.136 61.696 187.136 60.416V47.296H195.008V40H187.136ZM237.823 72L232.767 57.408H224.255V72H215.423V28.48H232.319C242.559 28.48 247.679 33.2587 247.679 42.816C247.679 48.4907 245.546 52.672 241.279 55.36L247.487 72H237.823ZM242.493 55.7532C246.634 52.847 248.679 48.4808 248.679 42.816C248.679 37.8648 247.35 33.9726 244.522 31.3329C241.706 28.7054 237.577 27.48 232.319 27.48H214.423V73H225.255V58.408H232.056L237.112 73H248.928L242.493 55.7532ZM236.24 38.5483L236.234 38.5409C235.404 37.578 234.156 37.032 232.319 37.032H225.255V48.856H232.447C234.325 48.856 235.555 48.2911 236.338 47.3113C237.185 46.2526 237.655 44.8072 237.655 42.88C237.655 40.9698 237.152 39.5656 236.247 38.5555L236.24 38.5483ZM232.447 49.856C234.538 49.856 236.095 49.216 237.119 47.936C238.143 46.656 238.655 44.9707 238.655 42.88C238.655 40.7893 238.101 39.1253 236.991 37.888C235.925 36.6507 234.367 36.032 232.319 36.032H224.255V49.856H232.447ZM279.315 70.976C274.408 72.1707 269.971 72.768 266.003 72.768C261.182 72.768 257.683 71.488 255.507 68.928C253.331 66.368 252.243 62.208 252.243 56.448C252.243 44.9707 256.958 39.232 266.387 39.232C275.688 39.232 280.339 44.0533 280.339 53.696L279.699 59.648H260.883C260.89 59.9983 260.913 60.3317 260.951 60.648C261.123 62.1039 261.613 63.1999 262.419 63.936C263.443 64.7893 264.894 65.216 266.771 65.216C270.739 65.216 274.28 65.088 277.395 64.832L279.187 64.64L279.315 70.976ZM277.301 63.8364C277.305 63.836 277.309 63.8357 277.313 63.8354L280.165 63.5295L280.331 71.7578L279.551 71.9476C274.587 73.1563 270.069 73.768 266.003 73.768C261.02 73.768 257.182 72.4431 254.745 69.5756C252.338 66.7443 251.243 62.2905 251.243 56.448C251.243 50.5977 252.44 46.0242 255.006 42.9012C257.603 39.7406 261.461 38.232 266.387 38.232C271.201 38.232 274.993 39.4817 277.571 42.1537C280.142 44.8191 281.339 48.7294 281.339 53.696V53.7496L280.597 60.648H261.958C262.121 61.8658 262.527 62.6722 263.077 63.1824C263.86 63.8263 265.046 64.216 266.771 64.216C270.713 64.216 274.222 64.089 277.301 63.8364ZM269.897 48.4369L269.891 48.4287C269.357 47.7542 268.304 47.272 266.387 47.272C264.54 47.272 263.469 47.7615 262.881 48.4951C262.373 49.1384 261.99 50.2958 261.862 52.12H270.867C270.772 50.2009 270.396 49.0408 269.904 48.4449L269.897 48.4369ZM271.868 52.12C271.773 50.0933 271.375 48.656 270.675 47.808C269.864 46.784 268.435 46.272 266.387 46.272C264.382 46.272 262.952 46.8053 262.099 47.872C261.402 48.7521 260.989 50.1681 260.86 52.12C260.838 52.439 260.825 52.7724 260.819 53.12H271.891C271.891 52.7721 271.883 52.4388 271.868 52.12ZM287.239 69.7641L287.233 69.7576C284.949 66.997 283.932 62.2916 283.932 55.936C283.932 49.5257 285.101 44.8009 287.738 42.1153L287.745 42.1089C290.419 39.4347 294.873 38.232 300.804 38.232C303.453 38.232 306.879 38.4486 311.072 38.8762C311.075 38.8765 311.078 38.8769 311.081 38.8772L314.284 39.1439V86.44H303.708V72.5123C301.488 73.3338 299.511 73.768 297.796 73.768C293.146 73.768 289.545 72.5028 287.239 69.7641ZM303.708 71.4435C304.035 71.3179 304.368 71.1834 304.708 71.04V85.44H313.284V40.064L310.98 39.872C306.799 39.4453 303.407 39.232 300.804 39.232C294.959 39.232 290.841 40.4267 288.452 42.816C286.105 45.2053 284.932 49.5787 284.932 55.936C284.932 62.2507 285.956 66.6453 288.004 69.12C290.052 71.552 293.316 72.768 297.796 72.768C299.439 72.768 301.41 72.3265 303.708 71.4435ZM303.633 63.4778L303.708 63.4605V47.8162C302.551 47.7084 301.585 47.656 300.804 47.656C298.081 47.656 296.557 48.368 295.807 49.4576C295.006 50.643 294.508 52.894 294.508 56.448C294.508 59.2554 294.956 61.1905 295.714 62.3952C296.424 63.5222 297.451 64.088 298.948 64.088C300.57 64.088 302.125 63.8853 303.615 63.4826L303.633 63.4778ZM294.98 48.896C296.004 47.4027 297.945 46.656 300.804 46.656C301.828 46.656 303.129 46.7413 304.708 46.912V64.256L303.876 64.448C302.297 64.8747 300.655 65.088 298.948 65.088C295.321 65.088 293.508 62.208 293.508 56.448C293.508 52.864 293.999 50.3467 294.98 48.896ZM339.098 39H349.674V73H339.162V71.858C336.602 73.1059 334.262 73.768 332.162 73.768C327.578 73.768 324.16 72.5105 322.356 69.654L322.352 69.6474C320.661 66.9225 319.898 62.564 319.898 56.768V39H330.474V56.896C330.474 60.0636 330.74 62.0185 331.156 62.9539C331.426 63.5632 332.139 64.088 333.954 64.088C335.723 64.088 337.379 63.8069 338.928 63.2508L338.95 63.243L339.098 63.1974V39ZM340.098 63.936L339.266 64.192C337.602 64.7893 335.831 65.088 333.954 65.088C331.991 65.088 330.754 64.512 330.242 63.36C329.73 62.208 329.474 60.0533 329.474 56.896V40H320.898V56.768C320.898 62.528 321.666 66.6453 323.202 69.12C324.738 71.552 327.725 72.768 332.162 72.768C334.174 72.768 336.508 72.0922 339.162 70.7407C339.49 70.5735 339.824 70.3959 340.162 70.208V72H348.674V40H340.098V63.936ZM382.065 70.976C377.158 72.1707 372.721 72.768 368.753 72.768C363.932 72.768 360.433 71.488 358.257 68.928C356.081 66.368 354.993 62.208 354.993 56.448C354.993 44.9707 359.708 39.232 369.137 39.232C378.438 39.232 383.089 44.0533 383.089 53.696L382.449 59.648H363.633C363.64 59.9983 363.663 60.3317 363.701 60.648C363.873 62.1039 364.363 63.1999 365.169 63.936C366.193 64.7893 367.644 65.216 369.521 65.216C373.489 65.216 377.03 65.088 380.145 64.832L381.937 64.64L382.065 70.976ZM380.051 63.8364C380.055 63.836 380.059 63.8357 380.063 63.8354L382.915 63.5295L383.081 71.7578L382.301 71.9476C377.337 73.1563 372.819 73.768 368.753 73.768C363.77 73.768 359.932 72.4431 357.495 69.5756C355.088 66.7443 353.993 62.2905 353.993 56.448C353.993 50.5977 355.19 46.0242 357.756 42.9012C360.353 39.7406 364.211 38.232 369.137 38.232C373.951 38.232 377.743 39.4817 380.321 42.1537C382.892 44.8191 384.089 48.7294 384.089 53.696V53.7496L383.347 60.648H364.708C364.871 61.8658 365.277 62.6722 365.827 63.1824C366.61 63.8263 367.796 64.216 369.521 64.216C373.463 64.216 376.972 64.089 380.051 63.8364ZM372.647 48.4369L372.641 48.4287C372.107 47.7542 371.054 47.272 369.137 47.272C367.29 47.272 366.219 47.7615 365.631 48.4951C365.123 49.1384 364.74 50.2958 364.612 52.12H373.617C373.522 50.2009 373.146 49.0408 372.654 48.4449L372.647 48.4369ZM374.618 52.12C374.523 50.0933 374.125 48.656 373.425 47.808C372.614 46.784 371.185 46.272 369.137 46.272C367.132 46.272 365.702 46.8053 364.849 47.872C364.152 48.7521 363.739 50.1681 363.61 52.12C363.588 52.439 363.575 52.7724 363.569 53.12H374.641C374.641 52.7721 374.633 52.4388 374.618 52.12ZM413.174 49.1347L412.066 48.9918C406.773 48.3089 403.119 47.976 401.058 47.976C400.038 47.976 399.225 48.0231 398.605 48.1103C397.979 48.1983 397.64 48.3158 397.489 48.4023C397.246 48.5639 397.066 48.8267 397.066 49.408C397.066 49.6395 397.121 49.7775 397.188 49.8725C397.256 49.9697 397.386 50.0901 397.643 50.2026C398.431 50.4719 400.469 50.924 403.859 51.5599C407.381 52.1693 410.073 53.2177 411.738 54.8344C413.468 56.5137 414.218 59.1206 414.218 62.4C414.218 66.0741 413.068 68.9895 410.629 70.9546C408.232 72.8865 404.75 73.768 400.354 73.768C397.454 73.768 393.974 73.3734 389.928 72.5985C389.927 72.5984 389.926 72.5983 389.926 72.5982L387.036 72.0563L387.362 62.9318L388.45 63.0722C393.744 63.7554 397.354 64.088 399.33 64.088C400.349 64.088 401.175 64.0409 401.819 63.9532C402.47 63.8644 402.866 63.7425 403.078 63.6326C403.553 63.3655 403.706 63.0649 403.706 62.656C403.706 62.4253 403.651 62.2745 403.574 62.1615C403.494 62.0424 403.345 61.9017 403.062 61.7677L403.052 61.7632L403.043 61.7584C402.777 61.6258 402.18 61.4338 401.154 61.1987C400.158 60.9704 398.836 60.7181 397.181 60.4424L397.179 60.442C393.815 59.874 391.166 58.8937 389.354 57.4149C387.388 55.8113 386.554 53.0891 386.554 49.6C386.554 45.9398 387.805 43.0517 390.411 41.1193C392.928 39.2104 396.12 38.296 399.906 38.296C402.514 38.296 406.018 38.714 410.391 39.5286C410.392 39.5287 410.392 39.5288 410.393 39.5289L413.337 40.0642L413.174 49.1347ZM410.21 40.512C405.858 39.7013 402.423 39.296 399.906 39.296C396.279 39.296 393.314 40.1707 391.01 41.92C388.706 43.6267 387.554 46.1867 387.554 49.6C387.554 52.9707 388.365 55.3173 389.986 56.64C391.607 57.9627 394.061 58.9013 397.346 59.456C400.674 60.0107 402.722 60.48 403.49 60.864C404.301 61.248 404.706 61.8453 404.706 62.656C404.706 63.4667 404.322 64.0853 403.554 64.512C402.829 64.896 401.421 65.088 399.33 65.088C397.413 65.088 394.076 64.789 389.318 64.1909C388.993 64.15 388.661 64.1077 388.322 64.064L388.066 71.232L390.114 71.616C394.125 72.384 397.538 72.768 400.354 72.768C408.93 72.768 413.218 69.312 413.218 62.4C413.218 59.2427 412.493 56.96 411.042 55.552C409.591 54.144 407.138 53.1413 403.682 52.544C400.269 51.904 398.135 51.4347 397.282 51.136C396.471 50.7947 396.066 50.2187 396.066 49.408C396.066 48.5547 396.365 47.936 396.962 47.552C397.602 47.168 398.967 46.976 401.058 46.976C403.054 46.976 406.434 47.275 411.196 47.8729C411.522 47.9139 411.855 47.9562 412.194 48L412.322 40.896L410.21 40.512ZM438.133 48.296H430.261V60.416C430.261 61.6551 430.282 62.5234 430.319 63.0427C430.371 63.3148 430.496 63.5569 430.716 63.784C430.892 63.9327 431.245 64.0862 431.937 64.088C431.941 64.088 431.945 64.088 431.949 64.088L437.757 63.9348L438.243 72.5986L437.416 72.7838C434.54 73.4277 432.276 73.768 430.669 73.768C426.741 73.768 423.726 72.9051 422.026 70.8444L422.018 70.8351C420.378 68.797 419.685 65.2843 419.685 60.608V48.296H415.909V39H419.685V30.104H430.261V39H438.133V48.296ZM429.261 40V31.104H420.685V40H416.909V47.296H420.685V60.608C420.685 65.2587 421.389 68.4587 422.797 70.208C424.205 71.9147 426.829 72.768 430.669 72.768C432.163 72.768 434.339 72.448 437.197 71.808L436.813 64.96L431.949 65.088C431.096 65.088 430.456 64.896 430.029 64.512C429.645 64.128 429.411 63.68 429.325 63.168C429.283 62.6133 429.261 61.696 429.261 60.416V47.296H437.133V40H429.261ZM99.5943 35.904H108.17V27.2H99.5943V35.904Z" fill="black"/>
</svg>
