<svg width="244" height="97" viewBox="0 0 244 97" fill="none" xmlns="http://www.w3.org/2000/svg">
<path fill-rule="evenodd" clip-rule="evenodd" d="M14.5681 73H3.73608V27.48H20.7361C26.0467 27.48 30.2145 28.7746 33.0503 31.5401C35.8907 34.3101 37.2241 38.3887 37.2241 43.584C37.2241 48.8314 35.8544 53.0187 32.9745 55.9916C30.1238 58.9358 25.9845 60.328 20.7361 60.328H14.5681V73ZM13.5681 59.328H20.7361C25.8134 59.328 29.6534 57.984 32.2561 55.296C34.9014 52.5653 36.2241 48.6613 36.2241 43.584C36.2241 33.5147 31.0614 28.48 20.7361 28.48H4.73608V72H13.5681V59.328ZM24.9242 38.4968L24.9181 38.49C24.1091 37.5838 22.7694 37.032 20.6721 37.032H14.5681V50.776H20.6721C22.6507 50.776 23.9753 50.172 24.837 49.1011C25.7322 47.9887 26.2641 46.2068 26.2641 43.584C26.2641 40.9822 25.7393 39.3771 24.9303 38.5034L24.9242 38.4968ZM13.5681 51.776V36.032H20.6721C22.9334 36.032 24.5974 36.6293 25.6641 37.824C26.7308 38.976 27.2641 40.896 27.2641 43.584C27.2641 49.0453 25.0668 51.776 20.6721 51.776H13.5681ZM58.5145 62.6732L58.5198 62.6641C59.2791 61.3625 59.7276 59.1715 59.7276 55.936C59.7276 52.6967 59.2778 50.5353 58.5261 49.2825L58.5206 49.2734L58.5153 49.2641C57.8961 48.1805 56.7436 47.528 54.7116 47.528C52.6874 47.528 51.5008 48.1769 50.8385 49.2735C50.1225 50.5334 49.6956 52.7007 49.6956 55.936C49.6956 59.1679 50.1214 61.3645 50.8446 62.6731C51.5124 63.8108 52.6995 64.472 54.7116 64.472C56.7308 64.472 57.8843 63.8076 58.5094 62.6824L58.5145 62.6732ZM49.9756 63.168C49.1222 61.632 48.6956 59.2213 48.6956 55.936C48.6956 52.6507 49.1222 50.2613 49.9756 48.768C50.8716 47.2747 52.4503 46.528 54.7116 46.528C56.9729 46.528 58.5303 47.2747 59.3836 48.768C60.2796 50.2613 60.7276 52.6507 60.7276 55.936C60.7276 59.2213 60.2796 61.632 59.3836 63.168C58.5303 64.704 56.9729 65.472 54.7116 65.472C52.4503 65.472 50.8716 64.704 49.9756 63.168ZM42.5928 43.0358C45.1148 39.7549 49.251 38.232 54.7116 38.232C60.1719 38.232 64.3081 39.7548 66.83 43.0355C69.2757 46.1747 70.4316 50.5186 70.4316 55.936C70.4316 61.6703 69.1808 66.1579 66.5043 69.2183C63.8055 72.3044 59.8099 73.768 54.7116 73.768C49.6133 73.768 45.6177 72.3044 42.9188 69.2183C40.2424 66.1579 38.9916 61.6703 38.9916 55.936C38.9916 50.5188 40.1473 46.175 42.5928 43.0358ZM66.0396 43.648C63.7783 40.704 60.0023 39.232 54.7116 39.232C49.4209 39.232 45.6449 40.704 43.3836 43.648C41.1222 46.5493 39.9916 50.6453 39.9916 55.936C39.9916 67.1573 44.8983 72.768 54.7116 72.768C64.5249 72.768 69.4316 67.1573 69.4316 55.936C69.4316 50.6453 68.3009 46.5493 66.0396 43.648ZM74.7181 73V39H85.2301V41.6709C88.3485 39.9722 91.3646 38.8256 94.2765 38.2509L95.4701 38.0153V48.6839L94.6755 48.8507C91.248 49.57 88.3204 50.3075 85.8875 51.0618L85.2941 51.2695V73H74.7181ZM84.2941 50.56L85.5741 50.112C88.0488 49.344 91.0141 48.5973 94.4701 47.872V39.232C94.1385 39.2974 93.8052 39.3707 93.4701 39.4517C90.8338 40.0893 88.0872 41.21 85.2301 42.8137C84.8982 42.9999 84.5649 43.1927 84.2301 43.392V40H75.7181V72H84.2941V50.56ZM118.259 48.296H110.387V60.416C110.387 61.6552 110.407 62.5235 110.444 63.0428C110.497 63.3148 110.621 63.557 110.841 63.784C111.018 63.9327 111.371 64.0862 112.062 64.088L117.883 63.9348L118.368 72.5986L117.541 72.7838C114.665 73.4277 112.402 73.768 110.795 73.768C106.866 73.768 103.851 72.9051 102.151 70.8444L102.144 70.8351C100.503 68.797 99.8106 65.2843 99.8106 60.608V48.296H96.0346V39H99.8106V30.104H110.387V39H118.259V48.296ZM109.387 40V31.104H100.811V40H97.0346V47.296H100.811V60.608C100.811 65.2587 101.515 68.4587 102.923 70.208C104.331 71.9147 106.955 72.768 110.795 72.768C112.288 72.768 114.464 72.448 117.323 71.808L116.939 64.96L112.075 65.088C111.221 65.088 110.581 64.896 110.155 64.512C109.771 64.128 109.536 63.68 109.451 63.168C109.408 62.6133 109.387 61.696 109.387 60.416V47.296H117.259V40H109.387ZM139.892 34.1975C138.447 34.1405 137.201 34.112 136.155 34.112C134.875 34.112 134.022 34.4533 133.595 35.136C133.168 35.8187 132.955 36.992 132.955 38.656V40H140.699V47.296H132.955V72H124.379V47.296H120.923V40H124.379V38.592C124.379 33.984 125.062 30.8053 126.427 29.056C127.792 27.3067 130.224 26.432 133.723 26.432C135.259 26.432 137.243 26.6453 139.675 27.072L141.019 27.264L140.891 34.2397C140.548 34.2241 140.215 34.2102 139.892 34.1975ZM123.379 39V38.592C123.379 33.959 124.051 30.4755 125.639 28.4407C127.282 26.3358 130.095 25.432 133.723 25.432C135.338 25.432 137.38 25.6546 139.832 26.0843L142.035 26.399L141.872 35.2856L140.846 35.239C138.977 35.154 137.415 35.112 136.155 35.112C135.007 35.112 134.597 35.4193 134.443 35.666C134.176 36.0932 133.955 37.0178 133.955 38.656V39H141.699V48.296H133.955V73H123.379V48.296H119.923V39H123.379ZM162.327 62.6732L162.332 62.6641C163.092 61.3625 163.54 59.1715 163.54 55.936C163.54 52.6967 163.09 50.5353 162.339 49.2825L162.333 49.2734L162.328 49.2641C161.709 48.1805 160.556 47.528 158.524 47.528C156.5 47.528 155.313 48.1768 154.651 49.2733C153.935 50.5332 153.508 52.7005 153.508 55.936C153.508 59.1678 153.934 61.3644 154.657 62.673C155.325 63.8108 156.512 64.472 158.524 64.472C160.543 64.472 161.697 63.8076 162.322 62.6824L162.327 62.6732ZM153.788 63.168C152.935 61.632 152.508 59.2213 152.508 55.936C152.508 52.6507 152.935 50.2613 153.788 48.768C154.684 47.2747 156.263 46.528 158.524 46.528C160.785 46.528 162.343 47.2747 163.196 48.768C164.092 50.2613 164.54 52.6507 164.54 55.936C164.54 59.2213 164.092 61.632 163.196 63.168C162.343 64.704 160.785 65.472 158.524 65.472C156.263 65.472 154.684 64.704 153.788 63.168ZM146.406 43.0355C148.928 39.7548 153.064 38.232 158.524 38.232C163.984 38.232 168.121 39.7548 170.643 43.0355C173.088 46.1747 174.244 50.5186 174.244 55.936C174.244 61.6703 172.993 66.1579 170.317 69.2183C167.618 72.3044 163.622 73.768 158.524 73.768C153.426 73.768 149.43 72.3044 146.731 69.2183C144.055 66.1579 142.804 61.6703 142.804 55.936C142.804 50.5186 143.96 46.1747 146.406 43.0355ZM147.196 43.648C149.457 40.704 153.233 39.232 158.524 39.232C163.815 39.232 167.591 40.704 169.852 43.648C172.113 46.5493 173.244 50.6453 173.244 55.936C173.244 67.1573 168.337 72.768 158.524 72.768C148.711 72.768 143.804 67.1573 143.804 55.936C143.804 50.6453 144.935 46.5493 147.196 43.648ZM178.915 73V26.2H189.491V73H178.915ZM195.781 73V39H206.357V73H195.781ZM195.781 36.904V26.2H206.357V36.904H195.781ZM230.14 62.6732L230.145 62.6641C230.904 61.3625 231.353 59.1715 231.353 55.936C231.353 52.6967 230.903 50.5353 230.151 49.2825L230.146 49.2734L230.14 49.2641C229.521 48.1805 228.369 47.528 226.337 47.528C224.313 47.528 223.126 48.1768 222.464 49.2733C221.748 50.5332 221.321 52.7005 221.321 55.936C221.321 59.1678 221.746 61.3644 222.47 62.673C223.137 63.8108 224.324 64.472 226.337 64.472C228.356 64.472 229.509 63.8076 230.134 62.6824L230.14 62.6732ZM221.601 63.168C220.747 61.632 220.321 59.2213 220.321 55.936C220.321 52.6507 220.747 50.2613 221.601 48.768C222.497 47.2747 224.075 46.528 226.337 46.528C228.598 46.528 230.155 47.2747 231.009 48.768C231.905 50.2613 232.353 52.6507 232.353 55.936C232.353 59.2213 231.905 61.632 231.009 63.168C230.155 64.704 228.598 65.472 226.337 65.472C224.075 65.472 222.497 64.704 221.601 63.168ZM214.218 43.0355C216.74 39.7548 220.876 38.232 226.337 38.232C231.797 38.232 235.933 39.7548 238.455 43.0355C240.901 46.1747 242.057 50.5186 242.057 55.936C242.057 61.6703 240.806 66.1579 238.129 69.2183C235.43 72.3044 231.435 73.768 226.337 73.768C221.238 73.768 217.243 72.3044 214.544 69.2183C211.867 66.1579 210.617 61.6703 210.617 55.936C210.617 50.5186 211.772 46.1747 214.218 43.0355ZM215.009 43.648C217.27 40.704 221.046 39.232 226.337 39.232C231.627 39.232 235.403 40.704 237.665 43.648C239.926 46.5493 241.057 50.6453 241.057 55.936C241.057 67.1573 236.15 72.768 226.337 72.768C216.523 72.768 211.617 67.1573 211.617 55.936C211.617 50.6453 212.747 46.5493 215.009 43.648ZM179.915 72H188.491V27.2H179.915V72ZM196.781 72H205.357V40H196.781V72ZM196.781 35.904H205.357V27.2H196.781V35.904Z" fill="black"/>
</svg>
