<svg width="257" height="97" viewBox="0 0 257 97" fill="none" xmlns="http://www.w3.org/2000/svg">
<path fill-rule="evenodd" clip-rule="evenodd" d="M33.3417 72.0976L32.5321 72.2733C27.9578 73.2658 23.8104 73.768 20.0961 73.768C16.4021 73.768 13.3554 73.3139 11.0113 72.3487C8.64633 71.3749 6.77583 69.8102 5.42613 67.6693C4.10979 65.5813 3.21584 63.1515 2.72743 60.3987C2.2442 57.675 2.00806 54.2836 2.00806 50.24C2.00806 41.8102 3.17145 35.6828 5.71432 32.1228L5.71573 32.1208C8.3789 28.4114 13.1517 26.712 19.6481 26.712C23.4175 26.712 27.7437 27.3031 32.6165 28.4674L33.4132 28.6577L33.0867 37.6367L31.9783 37.4687C27.7813 36.8328 24.3153 36.52 21.5681 36.52C18.8343 36.52 17.0977 36.9084 16.1568 37.5132L16.146 37.5201L16.135 37.5268C15.2497 38.0643 14.4572 39.1892 13.8922 41.1616C13.3756 43.1161 13.0961 46.56 13.0961 51.584C13.0961 56.5972 13.6799 59.8491 14.6799 61.5625C15.6093 63.0458 17.5189 63.96 20.8641 63.96C24.3495 63.96 28.0541 63.666 31.9792 63.0751L33.0977 62.9068L33.3417 72.0976ZM13.8241 62.08C12.6721 60.1173 12.0961 56.6187 12.0961 51.584C12.0961 46.5493 12.3734 42.9867 12.9281 40.896C13.5254 38.8053 14.4214 37.3973 15.6161 36.672C16.8107 35.904 18.7947 35.52 21.5681 35.52C24.1599 35.52 27.3481 35.7911 31.1327 36.3332C31.46 36.3801 31.7918 36.4291 32.1281 36.48L32.3841 29.44C27.5627 28.288 23.3174 27.712 19.6481 27.712C13.2907 27.712 8.91739 29.376 6.52806 32.704C4.18139 35.9893 3.00806 41.8347 3.00806 50.24C3.00806 54.2507 3.24272 57.5787 3.71206 60.224C4.18139 62.8693 5.03472 65.1733 6.27206 67.136C7.50939 69.0987 9.21606 70.528 11.3921 71.424C13.5681 72.32 16.4694 72.768 20.0961 72.768C23.7227 72.768 27.7974 72.2773 32.3201 71.296L32.1281 64.064C31.7944 64.1142 31.4622 64.1624 31.1315 64.2084C27.5301 64.7094 24.1076 64.96 20.8641 64.96C17.3654 64.96 15.0187 64 13.8241 62.08ZM55.077 62.6732L55.0823 62.6641C55.8415 61.3625 56.2901 59.1715 56.2901 55.936C56.2901 52.6967 55.8402 50.5353 55.0886 49.2825L55.0831 49.2734L55.0778 49.2641C54.4586 48.1805 53.306 47.528 51.2741 47.528C49.2499 47.528 48.0633 48.1769 47.401 49.2735C46.685 50.5334 46.2581 52.7007 46.2581 55.936C46.2581 59.1679 46.6838 61.3645 47.4071 62.6731C48.0749 63.8108 49.262 64.472 51.2741 64.472C53.2933 64.472 54.4468 63.8076 55.0719 62.6824L55.077 62.6732ZM46.5381 63.168C45.6847 61.632 45.2581 59.2213 45.2581 55.936C45.2581 52.6507 45.6847 50.2613 46.5381 48.768C47.4341 47.2747 49.0127 46.528 51.2741 46.528C53.5354 46.528 55.0927 47.2747 55.9461 48.768C56.8421 50.2613 57.2901 52.6507 57.2901 55.936C57.2901 59.2213 56.8421 61.632 55.9461 63.168C55.0927 64.704 53.5354 65.472 51.2741 65.472C49.0127 65.472 47.4341 64.704 46.5381 63.168ZM39.1553 43.0358C41.6773 39.7549 45.8135 38.232 51.2741 38.232C56.7348 38.232 60.8712 39.755 63.3931 43.0362C65.8384 46.1754 66.9941 50.519 66.9941 55.936C66.9941 61.6703 65.7433 66.1579 63.0668 69.2183C60.368 72.3044 56.3723 73.768 51.2741 73.768C46.1758 73.768 42.1801 72.3044 39.4813 69.2183C36.8049 66.1579 35.5541 61.6703 35.5541 55.936C35.5541 50.5188 36.7098 46.175 39.1553 43.0358ZM62.6021 43.648C60.3407 40.704 56.5647 39.232 51.2741 39.232C45.9834 39.232 42.2074 40.704 39.9461 43.648C37.6847 46.5493 36.5541 50.6453 36.5541 55.936C36.5541 67.1573 41.4607 72.768 51.2741 72.768C61.0874 72.768 65.9941 67.1573 65.9941 55.936C65.9941 50.6453 64.8634 46.5493 62.6021 43.648ZM81.8566 73H71.2806V39H81.7926V40.1098C84.2048 38.8873 86.3966 38.232 88.3446 38.232C91.7015 38.232 94.4719 39.1319 96.5381 41.0256C100.311 39.1849 103.835 38.232 107.097 38.232C111.497 38.232 114.817 39.5271 116.695 42.3876C118.53 45.0746 119.361 49.2278 119.361 54.656V73H108.785V54.912C108.785 52.216 108.484 50.3932 107.982 49.3189L107.977 49.3076C107.761 48.8296 107.457 48.5024 107.06 48.2829C106.65 48.056 106.082 47.912 105.305 47.912C104.077 47.912 102.521 48.182 100.616 48.7608L100.391 48.836C100.535 51.6705 100.609 53.8693 100.609 55.424V73H90.0326V55.552C90.0326 52.4014 89.7483 50.3675 89.283 49.2936L89.2783 49.2828C89.0855 48.8229 88.7954 48.5043 88.3948 48.2865C87.9763 48.0589 87.3812 47.912 86.5526 47.912C85.011 47.912 83.4852 48.1882 81.9703 48.7463L81.9556 48.7517L81.8566 48.7848V73ZM99.3526 48.128L100.313 47.808C102.275 47.2107 103.939 46.912 105.305 46.912C107.097 46.912 108.291 47.5733 108.889 48.896C109.486 50.176 109.785 52.1813 109.785 54.912V72H118.361V54.656C118.361 49.28 117.529 45.376 115.865 42.944C114.243 40.4693 111.321 39.232 107.097 39.232C103.854 39.232 100.27 40.2347 96.3446 42.24C94.4672 40.2347 91.8006 39.232 88.3446 39.232C86.4946 39.232 84.3106 39.9001 81.7926 41.2364C81.4649 41.4103 81.1315 41.5955 80.7926 41.792V40H72.2806V72H80.8566V48.064L81.6245 47.808C83.2459 47.2107 84.8886 46.912 86.5526 46.912C88.4299 46.912 89.6459 47.5733 90.2006 48.896C90.7552 50.176 91.0326 52.3947 91.0326 55.552V72H99.6086V55.424C99.6086 53.76 99.5232 51.328 99.3526 48.128ZM124.968 86.44V39H135.48V40.0247C137.748 38.8563 139.852 38.232 141.776 38.232C146.29 38.232 149.804 39.604 152.096 42.5146C154.364 45.3524 155.384 50.0193 155.384 56.256C155.384 62.5014 154.255 67.143 151.724 69.8649L151.718 69.8714C149.184 72.5493 145.14 73.768 139.856 73.768C138.503 73.768 137.065 73.6546 135.544 73.4309V86.44H124.968ZM134.544 72.256L135.312 72.384C135.39 72.3963 135.467 72.4082 135.544 72.4199C137.078 72.652 138.515 72.768 139.856 72.768C145.019 72.768 148.731 71.5733 150.992 69.184C153.253 66.752 154.384 62.4427 154.384 56.256C154.384 50.0693 153.36 45.696 151.312 43.136C149.264 40.5333 146.085 39.232 141.776 39.232C139.941 39.232 137.842 39.8733 135.48 41.156C135.152 41.3343 134.818 41.5249 134.48 41.728V40H125.968V85.44H134.544V72.256ZM143.427 62.6336L143.432 62.6247C144.204 61.4325 144.68 59.2117 144.68 55.744C144.68 52.8728 144.222 50.8899 143.442 49.6533C142.711 48.4943 141.652 47.912 140.112 47.912C138.674 47.912 137.201 48.2024 135.688 48.7988C135.685 48.7999 135.682 48.801 135.679 48.8022L135.544 48.8587V64.0786C137.041 64.2574 138.262 64.344 139.216 64.344C141.514 64.344 142.782 63.6777 143.421 62.6425L143.427 62.6336ZM134.544 64.96V48.192L135.312 47.872C136.933 47.232 138.533 46.912 140.112 46.912C143.824 46.912 145.68 49.856 145.68 55.744C145.68 59.2427 145.211 61.7173 144.272 63.168C143.376 64.6187 141.691 65.344 139.216 65.344C138.021 65.344 136.464 65.216 134.544 64.96ZM188.437 65.4995L188.11 73.768H187.149C184.937 73.768 183.105 73.6172 181.68 73.2954L181.673 73.2939C180.414 73.0001 179.162 72.4522 177.918 71.6709C174.882 73.0644 171.77 73.768 168.589 73.768C165.113 73.768 162.326 72.8459 160.422 70.8309C158.527 68.8265 157.669 65.9112 157.669 62.272C157.669 58.7046 158.628 55.9259 160.806 54.251C162.87 52.6221 165.919 51.7444 169.798 51.4825C169.799 51.4824 169.8 51.4823 169.801 51.4823L175.717 51.04V49.984C175.717 48.749 175.427 48.2588 175.203 48.0823L175.186 48.0691L175.17 48.0553C174.844 47.7758 174.182 47.5308 172.961 47.528L159.952 48.0816L159.619 40.332L160.391 40.1228C165.029 38.8659 169.448 38.232 173.645 38.232C177.875 38.232 181.156 39.0961 183.226 41.0635C185.344 43.0367 186.293 46.0924 186.293 49.984V63.2536C186.373 64.1883 186.521 64.7008 186.646 64.93C186.7 64.9943 186.924 65.1809 187.611 65.3254L188.437 65.4995ZM185.805 65.472C185.549 65.0453 185.378 64.32 185.293 63.296V49.984C185.293 46.2293 184.375 43.4987 182.541 41.792C180.749 40.0853 177.783 39.232 173.645 39.232C169.549 39.232 165.218 39.8507 160.653 41.088L160.909 47.04L172.941 46.528C174.263 46.528 175.223 46.784 175.821 47.296C176.418 47.7653 176.717 48.6613 176.717 49.984V51.968L169.869 52.48C166.071 52.736 163.255 53.5893 161.421 55.04C159.586 56.448 158.669 58.8587 158.669 62.272C158.669 69.2693 161.975 72.768 168.589 72.768C171.789 72.768 174.925 72.0213 177.997 70.528C179.319 71.424 180.621 72.0213 181.901 72.32C183.223 72.6187 184.973 72.768 187.149 72.768L187.405 66.304C186.594 66.1333 186.061 65.856 185.805 65.472ZM168.936 60.2343C168.563 60.6336 168.309 61.264 168.309 62.272C168.309 63.3178 168.544 63.9154 168.839 64.2468C169.115 64.5562 169.585 64.792 170.445 64.792C171.962 64.792 173.645 64.5522 175.499 64.0578L175.717 63.9997V59.0118L170.981 59.428M170.893 58.432C168.503 58.6453 167.309 59.9253 167.309 62.272C167.309 64.6187 168.354 65.792 170.445 65.792C172.066 65.792 173.837 65.536 175.757 65.024L176.717 64.768V57.92L170.893 58.432ZM168.936 60.2343C169.311 59.832 169.94 59.5212 170.98 59.4282ZM203.044 73H192.468V39H202.98V40.1073C205.427 38.8771 207.765 38.232 209.98 38.232C214.43 38.232 217.776 39.5525 219.653 42.4665C221.43 45.2262 222.244 49.3426 222.244 54.656V73H211.668V54.912C211.668 52.2202 211.346 50.4083 210.814 49.3432L210.808 49.3316C210.388 48.4639 209.544 47.912 207.868 47.912C206.235 47.912 204.667 48.1903 203.158 48.7463L203.143 48.7517L203.044 48.7848V73ZM202.044 48.064L202.812 47.808C204.433 47.2107 206.119 46.912 207.868 46.912C209.788 46.912 211.068 47.5733 211.708 48.896C212.348 50.176 212.668 52.1813 212.668 54.912V72H221.244V54.656C221.244 49.408 220.433 45.5253 218.812 43.008C217.191 40.4907 214.247 39.232 209.98 39.232C207.83 39.232 205.497 39.8989 202.98 41.2326C202.65 41.4076 202.317 41.5941 201.98 41.792V40H193.468V72H202.044V48.064ZM224.311 39H234.826L240.595 63.4679L246.363 39H256.881L245.121 86.44H234.659L238.179 73H232.675L224.311 39ZM239.475 72L235.955 85.44H244.339L255.603 40H247.155L241.331 64.704H239.859L234.035 40H225.587L233.459 72H239.475Z" fill="black"/>
</svg>
