<svg width="201" height="68" viewBox="0 0 201 68" fill="none" xmlns="http://www.w3.org/2000/svg">
<path d="M53.5468 59.7057L61.857 66.4536L61.8571 37.1602L53.5474 37.16L53.5468 59.7057Z" fill="#FAA619"/>
<path d="M9.67761 34.9929V50.985L21.902 52.266V34.9929C21.902 32.9986 22.1745 31.0682 22.6727 29.2325L10.9497 25.7688C10.1264 28.7036 9.67761 31.7945 9.67761 34.9929Z" fill="#FAA619"/>
<path d="M43.7871 13.1094C48.8083 13.1094 53.4317 14.806 57.1251 17.6519L64.7794 8.12291C58.9899 3.59174 51.7059 0.88501 43.7871 0.88501C40.5992 0.88501 37.5196 1.33141 34.5938 2.14901L38.0461 13.8752C39.8762 13.3795 41.7977 13.1094 43.7871 13.1094Z" fill="#FAA619"/>
<path d="M47.0294 25.7921C47.931 26.1116 48.7706 26.5563 49.5307 27.109L54.7423 20.6203C53.1546 19.4084 51.3629 18.457 49.425 17.8208L47.0294 25.7921Z" fill="#F57E1F"/>
<path d="M25.7091 66.4539L34.0203 59.7059L34.0204 41.5887L25.7089 41.5888L25.7091 66.4539Z" fill="#F57E1F"/>
<path d="M11.9624 22.7192L23.4292 26.965C24.0509 25.3885 24.85 23.9011 25.8024 22.5281L15.9052 15.3546C14.3057 17.6202 12.9768 20.0913 11.9624 22.7192Z" fill="#F57E1F"/>
<path d="M77.8911 50.9859V34.9938C77.8911 31.7954 77.4407 28.7045 76.619 25.7705L64.8953 29.235C65.395 31.0699 65.6668 32.9987 65.6668 34.9938V52.2669L77.8911 50.9859Z" fill="#F57E1F"/>
<path d="M43.7871 25.228C44.3751 25.228 44.9492 25.2886 45.5097 25.3889L47.3632 17.2736C46.2068 17.0406 45.0107 16.9177 43.7871 16.9177C38.3688 16.9177 33.5117 19.3034 30.1985 23.0784L36.5929 28.4046C38.3785 26.4572 40.9357 25.228 43.7871 25.228Z" fill="#78A6D8"/>
<path d="M67.2122 10.2178L58.9336 19.2112C61.1866 21.3741 62.9744 24.0135 64.1395 26.9666L75.6078 22.7208C73.7604 17.9382 70.8701 13.6783 67.2122 10.2178Z" fill="#78A6D8"/>
<path d="M3.22266 58.7616H21.9021V54.4496L3.22266 53.6611V58.7616Z" fill="#78A6D8"/>
<path d="M65.6699 58.7616H84.3494V53.6611L65.6699 54.4496V58.7616Z" fill="#78A6D8"/>
<path d="M53.5498 34.9928H53.5474V35.5823L61.8576 35.0211V34.9928H61.8593C61.8593 29.8971 59.7485 25.2972 56.3552 22.0115L50.7258 28.1285C52.471 29.8931 53.5498 32.3168 53.5498 34.9928Z" fill="#C35B26"/>
<path d="M34.0205 34.993C34.0205 33.0157 34.6125 31.18 35.621 29.6418L28.8853 24.7605C26.8837 27.6702 25.7095 31.1937 25.7095 34.993V39.4522L34.0205 40.011V34.993Z" fill="#C35B26"/>
<path d="M35.7765 14.6288L31.542 3.1578C26.2135 5.21013 21.5328 8.55694 17.8808 12.8179L27.2719 20.6431C29.5631 18.0086 32.4745 15.9287 35.7765 14.6288Z" fill="#C35B26"/>
<path d="M21.9019 61.0234H0.71228V67.2043H21.9019V61.0234Z" fill="#C35B26"/>
<path d="M86.8596 61.0234H65.6699V67.2043H86.8596V61.0234Z" fill="#C35B26"/>
<path d="M199.809 25.7819L199.801 25.7698H194.786C194.614 25.7698 194.475 25.9404 194.475 26.1491C194.475 26.3731 194.622 26.4758 194.781 26.5566C194.806 26.568 194.843 26.5817 194.902 26.6011C195.203 26.6982 195.83 26.8987 195.83 27.9266C195.846 28.0851 195.846 59.1215 195.846 59.1215C195.846 59.1215 196.271 59.1846 196.544 59.183C198.811 59.1765 200.389 58.329 200.712 57.1491V26.7604C200.712 26.166 200.382 25.8215 199.809 25.7819Z" fill="#543F16"/>
<path d="M184.062 38.604C185.421 35.9142 186.262 32.7983 186.262 28.0197C186.262 27.8013 186.155 27.4875 185.964 27.2854C185.749 27.0783 185.46 26.957 185.142 26.957H180.378C180.208 26.957 180.075 27.1212 180.075 27.329C180.075 27.5587 180.221 27.6646 180.378 27.7407C180.403 27.7512 180.445 27.7674 180.504 27.7851C180.807 27.8854 181.432 28.0868 181.432 29.1179H181.439C181.439 34.2556 178.343 43.4328 170.16 49.3379C169.992 49.4568 169.9 49.5781 169.893 49.7156C169.889 49.8409 169.951 49.9542 170.087 50.0666L171.66 51.1122C171.736 51.1704 171.829 51.2036 171.918 51.2036C172.007 51.2036 172.092 51.1704 172.172 51.1187C176.356 48.5308 179.976 45.0186 182.318 41.5355C185.003 44.1687 188.051 49.1948 188.865 50.6885C189.009 50.9513 189.143 51.1171 189.33 51.1737C189.357 51.185 189.386 51.1939 189.413 51.1987C189.565 51.2182 189.729 51.1656 189.908 51.0661L192.929 49.5676C193.18 49.4188 193.305 49.2748 193.349 49.122C193.395 48.9263 193.294 48.7379 193.174 48.547C191.767 46.2931 188.213 42.5763 184.062 38.604Z" fill="#543F16"/>
<path d="M140.388 40.7567C140.438 40.8659 140.537 40.9241 140.69 40.9241C140.751 40.9241 140.823 40.9144 140.902 40.8958C141.871 40.6823 147.586 39.1611 152.82 36.2376C155.801 37.2356 159.648 39.2088 162.233 40.4348C162.653 40.641 163.057 40.8295 163.436 41.0106C163.592 41.0802 163.732 41.1198 163.861 41.1117C164.109 41.0963 164.319 40.9386 164.474 40.6386L165.957 38.0354C166.088 37.7742 166.128 37.5663 166.055 37.3811C165.992 37.1968 165.831 37.0496 165.574 36.9453C163.692 36.1333 159.543 34.892 156.139 34.101C160.168 31.0991 162.273 27.9056 162.449 27.4915C162.658 27.003 162.628 26.6035 162.447 26.3076C162.212 25.9242 161.835 25.7698 161.06 25.7698H141.363C141.222 26.2299 141.326 26.8316 141.513 27.3411C141.764 28.0333 142.302 28.7887 142.801 28.9496V28.9528L155.869 28.9585C153.601 32.3001 145.845 36.2708 139.172 38.1518C138.842 38.2457 138.7 38.5166 138.941 38.836C139.183 39.1579 140.388 40.7567 140.388 40.7567Z" fill="#543F16"/>
<path d="M169.527 42.9272H135.46C135.323 43.385 135.425 43.9899 135.611 44.5002C135.863 45.194 136.4 45.9486 136.897 46.1103H150.014V59.1215C150.014 59.1215 150.438 59.1854 150.713 59.1838C152.983 59.1725 154.561 58.3322 154.88 57.1491V46.1103H168.048C168.556 45.9413 169.181 45.1479 169.411 44.4355C169.65 43.7076 169.722 43.2475 169.527 42.9272Z" fill="#543F16"/>
<path d="M116.287 57.3231C112.961 57.3231 110.053 55.535 110.053 52.7571C110.053 49.9865 112.961 48.1969 116.287 48.1969C119.616 48.1969 122.524 49.9865 122.524 52.7571C122.524 55.535 119.616 57.3231 116.287 57.3231ZM116.287 44.9426C110.452 44.9426 105.241 47.6566 105.241 52.7571C105.241 57.8681 110.452 60.5749 116.287 60.5749C122.126 60.5749 127.342 57.8681 127.342 52.7571C127.342 47.7262 122.037 44.9426 116.287 44.9426Z" fill="#543F16"/>
<path d="M133.657 40.0239H126.02C126.67 38.1032 127.822 33.4289 127.822 29.8626V27.286C127.822 26.221 127.339 25.7705 126.192 25.7705H104.845C104.704 26.2299 104.807 26.8315 104.994 27.341C105.249 28.0333 105.785 28.7886 106.284 28.9495L122.212 28.9552C122.856 28.9552 122.856 28.9552 122.856 29.5706V30.596C122.856 33.2793 121.965 38.937 121.811 40.0239H116.528V33.2114C116.528 32.6712 116.236 32.3679 115.693 32.3679H110.597C110.432 32.3679 110.297 32.5297 110.297 32.7496C110.297 32.9672 110.438 33.0788 110.596 33.1556C110.625 33.1629 110.667 33.1839 110.723 33.1985C111.024 33.2971 111.656 33.4993 111.656 34.5304H111.659V40.0239H99.5892C99.4493 40.4816 99.5537 41.0866 99.7405 41.5985C99.9895 42.2891 100.528 43.0452 101.027 43.2054H132.177C132.684 43.0347 133.312 42.2446 133.541 41.5322C133.781 40.8043 133.854 40.3458 133.657 40.0239Z" fill="#543F16"/>
</svg>
