<svg width="237" height="50" viewBox="0 0 237 50" fill="none" xmlns="http://www.w3.org/2000/svg">
<path d="M16.736 32.328H9.56799V45H0.735992V1.48004H16.736C27.0613 1.48004 32.224 6.51471 32.224 16.584C32.224 21.6614 30.9013 25.5654 28.256 28.296C25.6533 30.984 21.8133 32.328 16.736 32.328ZM9.56799 24.776H16.672C21.0667 24.776 23.264 22.0454 23.264 16.584C23.264 13.896 22.7307 11.976 21.664 10.824C20.5973 9.62937 18.9333 9.03204 16.672 9.03204H9.56799V24.776Z" fill="white"/>
<path d="M47.2555 30.408V45H38.4235V1.48004H55.3195C65.5595 1.48004 70.6795 6.2587 70.6795 15.816C70.6795 21.4907 68.5462 25.672 64.2795 28.36L70.4875 45H60.8235L55.7675 30.408H47.2555ZM55.4475 22.856C57.5382 22.856 59.0955 22.216 60.1195 20.936C61.1435 19.656 61.6555 17.9707 61.6555 15.88C61.6555 13.7894 61.1008 12.1254 59.9915 10.888C58.9248 9.6507 57.3675 9.03204 55.3195 9.03204H47.2555V22.856H55.4475Z" fill="white"/>
<path d="M87.135 34.76C88.415 36.9787 90.783 38.088 94.239 38.088C97.695 38.088 100.042 36.9787 101.279 34.76C102.559 32.4987 103.199 28.744 103.199 23.496C103.199 18.2054 102.559 14.3654 101.279 11.976C99.999 9.5867 97.6523 8.39204 94.239 8.39204C90.8257 8.39204 88.479 9.5867 87.199 11.976C85.919 14.3654 85.279 18.2054 85.279 23.496C85.279 28.744 85.8977 32.4987 87.135 34.76ZM108.191 40.392C105.503 43.976 100.852 45.768 94.239 45.768C87.6257 45.768 82.9537 43.976 80.223 40.392C77.535 36.7654 76.191 31.112 76.191 23.432C76.191 15.752 77.535 10.056 80.223 6.34404C82.9537 2.58937 87.6257 0.712036 94.239 0.712036C100.852 0.712036 105.503 2.58937 108.191 6.34404C110.922 10.056 112.287 15.752 112.287 23.432C112.287 31.112 110.922 36.7654 108.191 40.392Z" fill="white"/>
<path d="M115.966 49.48V41.8C117.673 41.8 118.91 41.48 119.678 40.84C120.446 40.2 120.83 39.0054 120.83 37.256V1.48004H129.598L129.662 37.64C129.662 42.2907 128.617 45.4267 126.526 47.048C124.478 48.6694 120.958 49.48 115.966 49.48Z" fill="white"/>
<path d="M138.798 45V1.48004H166.958V9.16004H147.63V19.336H163.118V26.888H147.63V37.32H166.958V45H138.798Z" fill="white"/>
<path d="M201.508 44.296C196.985 45.2774 192.91 45.768 189.284 45.768C185.657 45.768 182.755 45.32 180.579 44.424C178.403 43.528 176.697 42.0987 175.46 40.136C174.222 38.1734 173.369 35.8694 172.9 33.224C172.43 30.5787 172.195 27.2507 172.195 23.24C172.195 14.8347 173.369 8.98937 175.715 5.70404C178.105 2.37604 182.478 0.712036 188.835 0.712036C192.505 0.712036 196.75 1.28804 201.572 2.44004L201.315 9.48004C197.091 8.84004 193.571 8.52003 190.755 8.52003C187.982 8.52003 185.998 8.90403 184.803 9.67204C183.609 10.3974 182.713 11.8054 182.115 13.896C181.561 15.9867 181.284 19.5494 181.284 24.584C181.284 29.6187 181.86 33.1174 183.012 35.08C184.206 37 186.553 37.96 190.051 37.96C193.593 37.96 197.347 37.6614 201.315 37.064L201.508 44.296Z" fill="white"/>
<path d="M204.77 9.28804V1.48004H236.77V9.28804H225.249V45H216.417V9.28804H204.77Z" fill="white"/>
</svg>
