<svg width="307" height="48" viewBox="0 0 307 48" fill="none" xmlns="http://www.w3.org/2000/svg">
<path fill-rule="evenodd" clip-rule="evenodd" d="M20.848 31.384V21.704H35.52V46.148L34.6788 46.2833C28.5532 47.2686 23.545 47.768 19.672 47.768C12.7415 47.768 7.66991 45.9151 4.83904 41.9047L4.83448 41.8983C2.14064 38.0173 0.880005 32.0047 0.880005 24.048C0.880005 16.0903 2.20434 10.121 5.05035 6.35693C7.95887 2.51017 12.8291 0.712036 19.352 0.712036C23.3944 0.712036 27.7471 1.16834 32.4069 2.07442L35.5513 2.68583L35.2232 11.4618L34.1563 11.3462C29.0545 10.7935 24.8912 10.52 21.656 10.52C18.4331 10.52 16.386 10.9122 15.3101 11.5368C14.2848 12.1322 13.4199 13.2975 12.8222 15.2463C12.2699 17.1451 11.968 20.5562 11.968 25.584C11.968 30.556 12.5956 33.8055 13.675 35.5549C14.633 37.1075 16.7277 38.0839 20.4802 38.088L24.816 37.8791V31.384H20.848ZM25.816 30.384V38.832L20.504 39.088C16.6213 39.088 14.0613 38.0854 12.824 36.08C11.5867 34.0747 10.968 30.576 10.968 25.584C10.968 20.5494 11.2667 17.008 11.864 14.96C12.504 12.8694 13.4853 11.44 14.808 10.672C16.1307 9.90403 18.4133 9.52003 21.656 9.52003C24.7256 9.52003 28.596 9.76214 33.2673 10.2464C33.5956 10.2804 33.9278 10.3156 34.264 10.352L34.52 3.50404L32.216 3.05604C27.608 2.16004 23.32 1.71204 19.352 1.71204C12.9947 1.71204 8.49334 3.46137 5.84801 6.96004C3.20267 10.4587 1.88 16.1547 1.88 24.048C1.88 31.9414 3.13867 37.7014 5.656 41.328C8.21601 44.9547 12.888 46.768 19.672 46.768C23.4693 46.768 28.4187 46.2774 34.52 45.296V22.704H21.848V30.384H25.816ZM44.1696 41.9875C41.2918 38.1047 39.941 32.191 39.941 24.432C39.941 16.6701 41.2929 10.7211 44.1631 6.75753L44.1643 6.75586C47.1544 2.64438 52.2002 0.712036 58.989 0.712036C65.7737 0.712036 70.8019 2.64235 73.7505 6.75682C76.6643 10.7215 78.037 16.6714 78.037 24.432C78.037 32.1927 76.6644 38.1089 73.7404 41.9928C70.7861 45.9313 65.7603 47.768 58.989 47.768C52.2158 47.768 47.1737 45.9305 44.1776 41.9981L44.1696 41.9875ZM72.941 41.392C70.253 44.976 65.6023 46.768 58.989 46.768C52.3757 46.768 47.7037 44.976 44.973 41.392C42.285 37.7654 40.941 32.112 40.941 24.432C40.941 16.752 42.285 11.056 44.973 7.34404C47.7037 3.58937 52.3757 1.71204 58.989 1.71204C65.6023 1.71204 70.253 3.58937 72.941 7.34404C75.6717 11.056 77.037 16.752 77.037 24.432C77.037 32.112 75.6717 37.7654 72.941 41.392ZM65.1556 35.273L65.1587 35.2674C66.3037 33.2447 66.949 29.7141 66.949 24.496C66.949 19.2414 66.3058 15.6103 65.1475 13.4483C64.089 11.4724 62.1463 10.392 58.989 10.392C55.8317 10.392 53.889 11.4724 52.8305 13.4483C51.6722 15.6103 51.029 19.2414 51.029 24.496C51.029 29.7077 51.6511 33.2414 52.7568 35.2701C53.7987 37.0675 55.7547 38.088 58.989 38.088C62.2311 38.088 64.1571 37.0635 65.1556 35.273ZM51.885 35.76C50.6477 33.4987 50.029 29.744 50.029 24.496C50.029 19.2054 50.669 15.3654 51.949 12.976C53.229 10.5867 55.5757 9.39204 58.989 9.39204C62.4023 9.39204 64.749 10.5867 66.029 12.976C67.309 15.3654 67.949 19.2054 67.949 24.496C67.949 29.744 67.309 33.4987 66.029 35.76C64.7917 37.9787 62.445 39.088 58.989 39.088C55.533 39.088 53.165 37.9787 51.885 35.76ZM83.611 47V1.48004H100.272L109.659 33.5327V1.48004H120.491V47H104.222L94.443 14.7885V47H83.611ZM93.443 10.16H94.083L104.963 46H119.491V2.48004H110.659V38.32H110.019L99.523 2.48004H84.611V46H93.443V10.16ZM146.098 31.384V21.704H160.77V46.148L159.929 46.2833C153.803 47.2686 148.795 47.768 144.922 47.768C137.992 47.768 132.92 45.9151 130.089 41.9047L130.084 41.8983C127.391 38.0173 126.13 32.0047 126.13 24.048C126.13 16.0903 127.454 10.121 130.3 6.35693C133.209 2.51017 138.079 0.712036 144.602 0.712036C148.644 0.712036 152.997 1.16834 157.657 2.07442L160.801 2.68583L160.473 11.4618L159.406 11.3462C154.304 10.7935 150.141 10.52 146.906 10.52C143.683 10.52 141.636 10.9122 140.56 11.5368C139.535 12.1322 138.67 13.2976 138.072 15.2464C137.52 17.1451 137.218 20.5563 137.218 25.584C137.218 30.556 137.846 33.8055 138.925 35.5549C139.883 37.1075 141.978 38.0839 145.73 38.088L150.066 37.8791V31.384H146.098ZM151.066 30.384V38.832L145.754 39.088C141.871 39.088 139.311 38.0854 138.074 36.08C136.837 34.0747 136.218 30.576 136.218 25.584C136.218 20.5494 136.517 17.008 137.114 14.96C137.754 12.8694 138.735 11.44 140.058 10.672C141.381 9.90403 143.663 9.52003 146.906 9.52003C149.976 9.52003 153.846 9.76214 158.517 10.2464C158.846 10.2804 159.178 10.3156 159.514 10.352L159.77 3.50404L157.466 3.05604C152.858 2.16004 148.57 1.71204 144.602 1.71204C138.245 1.71204 133.743 3.46137 131.098 6.96004C128.453 10.4587 127.13 16.1547 127.13 24.048C127.13 31.9414 128.389 37.7014 130.906 41.328C133.466 44.9547 138.138 46.768 144.922 46.768C148.719 46.768 153.669 46.2774 159.77 45.296V22.704H147.098V30.384H151.066ZM193.229 10.3046C187.737 9.69622 183.823 9.39204 181.487 9.39204C176.836 9.39204 174.511 10.928 174.511 14C174.511 15.3654 175.087 16.4107 176.239 17.136C177.391 17.8614 180.079 18.9067 184.303 20.272C188.57 21.6374 191.556 23.1947 193.263 24.944C194.97 26.6507 195.823 29.296 195.823 32.88C195.823 37.4454 194.436 40.9014 191.663 43.248C188.89 45.5947 185.263 46.768 180.783 46.768C177.455 46.768 173.38 46.256 168.559 45.232L166.255 44.784L167.151 37.936C167.486 37.981 167.817 38.0247 168.142 38.0671C173.376 38.7477 177.419 39.088 180.271 39.088C184.794 39.088 187.055 37.2107 187.055 33.456C187.055 32.0907 186.522 31.024 185.455 30.256C184.431 29.488 182.362 28.656 179.247 27.76C174.298 26.352 170.799 24.688 168.751 22.768C166.746 20.8054 165.743 18.096 165.743 14.64C165.743 10.288 167.066 7.04537 169.711 4.91204C172.356 2.7787 175.983 1.71204 180.591 1.71204C183.748 1.71204 187.759 2.1387 192.623 2.99203L194.927 3.44004L194.223 10.4154C193.886 10.3772 193.555 10.3407 193.229 10.3046ZM178.972 28.7215C173.978 27.3006 170.292 25.5834 168.067 23.4976L168.059 23.4902L168.052 23.4827C165.811 21.2901 164.743 18.2986 164.743 14.64C164.743 10.0778 166.139 6.50794 169.083 4.13362C171.961 1.8132 175.836 0.712036 180.591 0.712036C183.829 0.712036 187.903 1.14865 192.796 2.00708L192.805 2.00867L196.014 2.63259L195.116 11.5238L194.11 11.4097C188.094 10.7269 183.899 10.392 181.487 10.392C179.24 10.392 177.729 10.7689 176.806 11.3784C175.956 11.94 175.511 12.7593 175.511 14C175.511 15.023 175.912 15.7482 176.772 16.2898C177.798 16.9359 180.358 17.9459 184.61 19.3202C188.918 20.6991 192.093 22.3157 193.974 24.241C195.94 26.2094 196.823 29.161 196.823 32.88C196.823 37.6577 195.363 41.4276 192.309 44.0114C189.316 46.5441 185.442 47.768 180.783 47.768C177.362 47.768 173.216 47.2431 168.36 46.212C168.357 46.2114 168.354 46.2108 168.351 46.2102L165.142 45.5863L166.29 36.8114L167.284 36.9449C172.989 37.7113 177.31 38.088 180.271 38.088C182.419 38.088 183.844 37.6384 184.72 36.9106C185.561 36.2124 186.055 35.1252 186.055 33.456C186.055 32.3976 185.665 31.6392 184.871 31.0676L184.863 31.0619L184.855 31.056C183.996 30.4117 182.095 29.62 178.972 28.7215ZM198.02 11.288V1.48004H232.02V11.288H220.499V47H209.667V11.288H198.02ZM210.667 10.288V46H219.499V10.288H231.02V2.48004H199.02V10.288H210.667ZM229.338 47L239.58 1.48004H257.948L268.19 47H257.304L255.576 39.128H241.952L240.224 47H229.338ZM241.148 38.128H256.38L258.108 46H266.94L257.148 2.48004H240.38L230.588 46H239.42L241.148 38.128ZM242.812 30.448H254.716L250.3 9.77604H247.228L242.812 30.448ZM248.037 10.776L244.048 29.448H253.48L249.491 10.776H248.037ZM295.136 46L290.08 31.408H281.568V46H272.736V2.48004H289.632C299.872 2.48004 304.992 7.25871 304.992 16.816C304.992 22.4907 302.859 26.672 298.592 29.36L304.8 46H295.136ZM299.806 29.7533C303.947 26.847 305.992 22.4809 305.992 16.816C305.992 11.8649 304.663 7.97266 301.834 5.33298C299.019 2.70544 294.89 1.48004 289.632 1.48004H271.736V47H282.568V32.408H289.368L294.424 47H306.24L299.806 29.7533ZM293.553 12.5483L293.547 12.541C292.716 11.578 291.469 11.032 289.632 11.032H282.568V22.856H289.76C291.638 22.856 292.867 22.2911 293.651 21.3113C294.498 20.2526 294.968 18.8072 294.968 16.88C294.968 14.9698 294.465 13.5657 293.559 12.5556L293.553 12.5483ZM281.568 23.856V10.032H289.632C291.68 10.032 293.237 10.6507 294.304 11.888C295.413 13.1254 295.968 14.7894 295.968 16.88C295.968 18.9707 295.456 20.656 294.432 21.936C293.408 23.216 291.851 23.856 289.76 23.856H281.568Z" fill="white"/>
</svg>
