<svg width="172" height="35" viewBox="0 0 172 35" fill="none" xmlns="http://www.w3.org/2000/svg">
<path d="M6.88086 6.7666L8.81055 6.7666C8.55664 4.95752 6.96338 3.68164 4.8877 3.68164C2.46289 3.68164 0.59668 5.43359 0.59668 8.41699C0.59668 11.3242 2.34863 13.127 4.92578 13.127C7.24268 13.127 8.89941 11.6543 8.89941 9.24219L8.89941 8.09961L5.06543 8.09961V9.53418H7.05859C7.0332 10.6895 6.25244 11.4321 4.93848 11.4385C3.47217 11.4321 2.53906 10.334 2.53906 8.3916C2.53906 6.46191 3.50391 5.37646 4.92578 5.37012C5.92871 5.37646 6.62061 5.90332 6.88086 6.7666Z" fill="white"/>
<path d="M18.7129 8.4043C18.7129 5.40186 16.853 3.68164 14.4219 3.68164C11.9717 3.68164 10.1182 5.40186 10.1182 8.4043C10.1182 11.394 11.9717 13.127 14.4219 13.127C16.853 13.127 18.7129 11.4067 18.7129 8.4043ZM12.0605 8.4043C12.0605 6.43652 12.9937 5.37646 14.4219 5.37012C15.8374 5.37646 16.7769 6.43652 16.7705 8.4043C16.7769 10.3657 15.8374 11.4321 14.4219 11.4385C12.9937 11.4321 12.0605 10.3657 12.0605 8.4043Z" fill="white"/>
<path d="M27.752 3.80859L25.8604 3.80859V9.64844H25.7715L21.7598 3.80859L20.084 3.80859V13H21.9883V7.16016H22.0645L26.1016 13H27.752V3.80859Z" fill="white"/>
<path d="M35.4072 6.7666H37.3369C37.083 4.95752 35.4897 3.68164 33.4141 3.68164C30.9893 3.68164 29.123 5.43359 29.123 8.41699C29.123 11.3242 30.875 13.127 33.4521 13.127C35.769 13.127 37.4258 11.6543 37.4258 9.24219V8.09961L33.5918 8.09961V9.53418H35.585C35.5596 10.6895 34.7788 11.4321 33.4648 11.4385C31.9985 11.4321 31.0654 10.334 31.0654 8.3916C31.0654 6.46191 32.0303 5.37646 33.4521 5.37012C34.4551 5.37646 35.147 5.90332 35.4072 6.7666Z" fill="white"/>
<path d="M43.8115 6.43652H45.6396C45.6143 4.81152 44.2749 3.68164 42.2373 3.68164C40.2251 3.68164 38.7524 4.79248 38.7588 6.46191C38.7588 7.80762 39.7109 8.58203 41.2598 8.96289L42.2627 9.2041C43.2656 9.45166 43.8369 9.74365 43.8369 10.3721C43.8369 11.0576 43.1895 11.5273 42.1865 11.5273C41.1709 11.5273 40.4346 11.0576 40.3711 10.1309H38.5176C38.5747 12.105 39.9902 13.1333 42.2119 13.127C44.4526 13.1333 45.7603 12.0542 45.7666 10.3721C45.7603 8.84229 44.5859 8.04248 43.0117 7.68066L42.1865 7.47754C41.3931 7.2998 40.7075 7.00146 40.7139 6.33496C40.7202 5.72559 41.2598 5.28125 42.2246 5.28125C43.1577 5.28125 43.7354 5.70654 43.8115 6.43652Z" fill="white"/>
<path d="M46.6553 5.38281L49.4736 5.38281V13L51.3652 13V5.38281L54.1836 5.38281V3.80859L46.6553 3.80859V5.38281Z" fill="white"/>
<path d="M55.7705 13L56.4624 10.8799L59.7886 10.8799L60.4805 13L62.5244 13L59.3506 3.80859L56.9004 3.80859L53.7139 13H55.7705ZM56.9448 9.39453L58.0938 5.87793H58.1572L59.3062 9.39453L56.9448 9.39453Z" fill="white"/>
<path d="M63.5654 13H65.4697V9.7373H66.9233L68.6816 13H70.7891L68.834 9.42627C69.8813 8.97559 70.459 8.06152 70.459 6.80469C70.459 4.98291 69.2593 3.80859 67.1709 3.80859L63.5654 3.80859V13ZM65.4697 8.18848V5.37012H66.8154C67.9453 5.37646 68.4976 5.87793 68.4912 6.80469C68.4976 7.7251 67.9453 8.18848 66.8154 8.18848H65.4697Z" fill="white"/>
<g opacity="0.5">
<path d="M1.42188 32L2.34229 29.4102H6.03662L6.95703 32H8.16309L4.79883 22.8086H3.59277L0.228516 32H1.42188ZM2.69141 28.4072L4.15137 24.2939H4.22754L5.6875 28.4072H2.69141Z" fill="white"/>
<path d="M9.40723 32H14.8154V30.9844H10.5498L10.5498 22.8086H9.40723L9.40723 32Z" fill="white"/>
<path d="M16.3389 32L21.7471 32V30.9844H17.4814V22.8086H16.3389V32Z" fill="white"/>
<path d="M32.8047 25.7031H33.9473C33.6045 23.7925 32.1001 22.6816 30.2402 22.6816C27.8789 22.6816 26.1714 24.4971 26.1777 27.4043C26.1714 30.3115 27.8789 32.127 30.2402 32.127C32.1064 32.127 33.6172 30.9971 33.9473 29.1182H32.8047C32.5317 30.375 31.4526 31.0542 30.2402 31.0605C28.5771 31.0542 27.2886 29.772 27.2822 27.4043C27.2886 25.0303 28.5771 23.748 30.2402 23.748C31.4526 23.748 32.5381 24.4336 32.8047 25.7031Z" fill="white"/>
<path d="M43.3164 27.4043C43.3228 24.4971 41.6089 22.6816 39.2539 22.6816C36.8926 22.6816 35.1851 24.4971 35.1914 27.4043C35.1851 30.3115 36.8926 32.127 39.2539 32.127C41.6089 32.127 43.3228 30.3115 43.3164 27.4043ZM36.2959 27.4043C36.3022 25.0303 37.5908 23.748 39.2539 23.748C40.917 23.748 42.2056 25.0303 42.2119 27.4043C42.2056 29.772 40.917 31.0542 39.2539 31.0605C37.5908 31.0542 36.3022 29.772 36.2959 27.4043Z" fill="white"/>
<path d="M44.9922 32H46.1348V28.6611H48.1279C50.2671 28.6611 51.251 27.3599 51.251 25.7285C51.251 24.0908 50.2671 22.8086 48.1152 22.8086H44.9922V32ZM46.1348 27.6455V23.8242H48.0645C49.5435 23.8242 50.1147 24.6304 50.1211 25.7285C50.1147 26.8203 49.5435 27.6455 48.0771 27.6455H46.1348Z" fill="white"/>
<path d="M52.0635 22.8086L55.377 28.2295V32H56.5322V28.2295L59.8584 22.8086H58.5381L56.0117 27.0742H55.8975L53.3711 22.8086H52.0635Z" fill="white"/>
<path d="M61.0898 32H62.2324V28.4326H64.2256C64.3018 28.4326 64.3779 28.4326 64.4478 28.4263L66.3711 32H67.7041L65.6348 28.2168C66.8027 27.8105 67.3486 26.8584 67.3486 25.6396C67.3486 24.002 66.3647 22.8086 64.2129 22.8086H61.0898V32ZM62.2324 27.3916V23.8242H64.1621C65.6411 23.8242 66.2124 24.5415 66.2188 25.6396C66.2124 26.7314 65.6411 27.3916 64.1748 27.3916H62.2324Z" fill="white"/>
<path d="M70.1416 22.8086H68.999V32H70.1416V22.8086Z" fill="white"/>
<path d="M78.4443 25.6777H79.625C79.2822 23.9004 77.7842 22.6816 75.8418 22.6816C73.4805 22.6816 71.811 24.4971 71.8174 27.4043C71.811 30.3115 73.4614 32.127 75.918 32.127C78.1079 32.127 79.6758 30.6606 79.6758 28.3818V27.3916H76.1592V28.3945H78.5586C78.5396 30.0259 77.4668 31.0542 75.918 31.0605C74.2168 31.0542 72.9282 29.772 72.9219 27.4043C72.9282 25.0303 74.2168 23.748 75.8418 23.748C77.1558 23.748 78.0508 24.4971 78.4443 25.6777Z" fill="white"/>
<path d="M81.3896 32H82.5322V27.8994H87.3945V32H88.5498V22.8086H87.3945V26.8965H82.5322V22.8086H81.3896V32Z" fill="white"/>
<path d="M90.0605 23.8242H92.9551V32H94.1104V23.8242H96.9922V22.8086H90.0605V23.8242Z" fill="white"/>
<path d="M103.53 25.1191H104.647C104.603 23.7227 103.321 22.6816 101.537 22.6816C99.7534 22.6816 98.3696 23.7036 98.376 25.2588C98.3696 26.5029 99.271 27.2393 100.712 27.6582L101.842 27.9629C102.807 28.2358 103.657 28.5786 103.657 29.4736C103.657 30.4766 102.705 31.1304 101.436 31.124C100.344 31.1304 99.3853 30.6416 99.29 29.6133H98.1221C98.23 31.1367 99.4551 32.1587 101.436 32.165C103.568 32.1587 104.774 30.9971 104.774 29.499C104.774 27.7788 103.156 27.2139 102.172 26.96L101.258 26.7061C100.56 26.5347 99.4868 26.1729 99.4805 25.208C99.4868 24.332 100.28 23.6973 101.499 23.6973C102.597 23.6973 103.435 24.2178 103.53 25.1191Z" fill="white"/>
<path d="M109.675 32H110.817V28.4326H112.811C112.887 28.4326 112.963 28.4326 113.033 28.4263L114.956 32L116.289 32L114.22 28.2168C115.388 27.8105 115.934 26.8584 115.934 25.6396C115.934 24.002 114.95 22.8086 112.798 22.8086H109.675V32ZM110.817 27.3916V23.8242H112.747C114.226 23.8242 114.797 24.5415 114.804 25.6396C114.797 26.7314 114.226 27.3916 112.76 27.3916H110.817Z" fill="white"/>
<path d="M117.584 32H123.221V30.9844H118.727V27.8994L122.865 27.8994V26.8965L118.727 26.8965V23.8242L123.157 23.8242V22.8086L117.584 22.8086V32Z" fill="white"/>
<path d="M129.975 25.1191H131.092C131.047 23.7227 129.765 22.6816 127.981 22.6816C126.198 22.6816 124.814 23.7036 124.82 25.2588C124.814 26.5029 125.715 27.2393 127.156 27.6582L128.286 27.9629C129.251 28.2358 130.102 28.5786 130.102 29.4736C130.102 30.4766 129.149 31.1304 127.88 31.124C126.788 31.1304 125.83 30.6416 125.734 29.6133H124.566C124.674 31.1367 125.899 32.1587 127.88 32.165C130.013 32.1587 131.219 30.9971 131.219 29.499C131.219 27.7788 129.6 27.2139 128.616 26.96L127.702 26.7061C127.004 26.5347 125.931 26.1729 125.925 25.208C125.931 24.332 126.725 23.6973 127.943 23.6973C129.042 23.6973 129.879 24.2178 129.975 25.1191Z" fill="white"/>
<path d="M132.856 32H138.493V30.9844H133.999V27.8994H138.138V26.8965H133.999V23.8242H138.43V22.8086H132.856V32Z" fill="white"/>
<path d="M140.232 32H141.375V28.4326H143.368C143.444 28.4326 143.521 28.4326 143.59 28.4263L145.514 32H146.847L144.777 28.2168C145.945 27.8105 146.491 26.8584 146.491 25.6396C146.491 24.002 145.507 22.8086 143.355 22.8086H140.232V32ZM141.375 27.3916V23.8242H143.305C144.784 23.8242 145.355 24.5415 145.361 25.6396C145.355 26.7314 144.784 27.3916 143.317 27.3916H141.375Z" fill="white"/>
<path d="M148.345 22.8086H147.139L150.503 32H151.709L155.073 22.8086H153.867L151.15 30.5146H151.049L148.345 22.8086Z" fill="white"/>
<path d="M156.317 32L161.954 32V30.9844L157.46 30.9844V27.8994H161.599V26.8965H157.46V23.8242H161.891V22.8086H156.317V32Z" fill="white"/>
<path d="M166.55 32C169.349 32 170.93 30.2607 170.93 27.3916C170.93 24.5288 169.349 22.8086 166.664 22.8086L163.693 22.8086V32H166.55ZM164.836 30.9844V23.8242L166.588 23.8242C168.727 23.8242 169.812 25.1699 169.812 27.3916C169.812 29.6196 168.727 30.9844 166.474 30.9844H164.836Z" fill="white"/>
</g>
</svg>
