<svg width="39" height="135" viewBox="0 0 39 135" fill="none" xmlns="http://www.w3.org/2000/svg">
<path d="M15.875 23.4375L15.875 10.4219L14.2188 10.4219L14.2187 23.4375L15.875 23.4375ZM23.9375 11.4375L23.9375 13.4062L19.625 13.4062L19.625 11.5L18.0625 11.5L18.0625 22.2812L19.625 22.2812L19.625 20.3437L23.9375 20.3437L23.9375 22.3437L25.5312 22.3437L25.5312 11.4375L23.9375 11.4375ZM19.625 15.4062L23.9375 15.4062L23.9375 18.375L19.625 18.375L19.625 15.4062Z" fill="white"/>
<path d="M15.7812 37.2656L15.7812 31.7187L17.9219 31.7187L17.9219 36.0937L19.5469 36.0937L19.5469 27.75L21.1406 27.75L21.1406 35.7656L25.8594 35.7656L25.8594 25.7344L24.2656 25.7344L24.2656 33.7969L22.7031 33.7969L22.7031 25.75L17.9219 25.75L17.9219 29.7344L15.7812 29.7344L15.7812 24.25L14.1406 24.25L14.1406 37.2656L15.7812 37.2656Z" fill="white"/>
<path d="M26.5 47.4687L26.5 45.5781L23.2656 45.5781L23.2656 44L21.6562 44L21.6562 45.5781L18.1875 45.5781L18.1875 47.4687L26.5 47.4687ZM19.7969 37.875L18.2187 38.9219C18.7422 40.2344 19.6875 41.1016 20.8359 41.6172C19.8047 42.1094 18.9687 42.9297 18.5 44.1406L20.0312 45.1406C20.7422 43.3125 22.2266 42.5547 23.7187 42.5625L24.1562 42.5625L24.1562 44.6875L25.75 44.6875L25.75 38.3594L24.1562 38.3594L24.1562 40.625L23.7344 40.625C22.1562 40.625 20.5234 39.8203 19.7969 37.875ZM16.0156 40.4687L16.0156 48.3125L12.5625 48.3125L12.5625 50.2969L17.5937 50.2969L17.5937 40.4687L16.0156 40.4687ZM18.1094 48.4062L18.1094 50.2969L26.7812 50.2969L26.7812 48.4062L18.1094 48.4062Z" fill="white"/>
<path d="M19.4375 63.5L19.4375 55.4687L21.0625 55.4687L21.0625 63.0625L22.625 63.0625L22.625 55.4687L24.125 55.4687L24.125 63.3906L25.7344 63.3906L25.7344 53.4375L17.8594 53.4375L17.8594 63.5L19.4375 63.5ZM14.2187 51.9062L14.2187 64.9219L15.8437 64.9219L15.8437 51.9062L14.2187 51.9062Z" fill="white"/>
<path d="M25.8281 74.0312C25.8359 71.7891 24.3828 70.0703 22.3437 70.0781C20.2969 70.0703 18.8516 71.7891 18.8437 74.0312C18.8516 76.2891 20.2969 77.9609 22.3437 77.9687C24.3828 77.9609 25.8359 76.2891 25.8281 74.0312ZM17.0625 69.4844L15.4375 69.7187C15.4375 72.2031 15.4609 75.5781 16.0781 78.7344L17.5156 78.5781C17.0859 75.5391 17.0547 72.0234 17.0625 69.4844ZM22.3437 72.0625C23.4531 72.0547 24.1094 72.9062 24.1094 74.0312C24.1094 75.1641 23.4531 76.0234 22.3437 76.0312C21.2187 76.0234 20.5703 75.1641 20.5781 74.0312C20.5703 72.9062 21.2187 72.0547 22.3437 72.0625ZM12.5312 79.3906L12.5312 81.375L26.7812 81.375L26.7812 79.3906L12.5312 79.3906Z" fill="white"/>
<path d="M25.5469 91.5937L25.5469 84.2656L23.9844 84.2656L23.9844 89.625L22.7656 89.625L22.7656 84.2812L18.5469 84.2812L18.5469 87L16.7187 87C16.6953 85.7109 16.6953 84.4531 16.7031 83.3125L15.0781 83.5469C15.0391 86.2187 15.0625 89.4531 15.5625 92.5625L17.0156 92.4062C16.9062 91.3125 16.8281 90.1562 16.7812 89L18.5469 89L18.5469 91.9219L20.0937 91.9219L20.0937 86.2812L21.3281 86.2812L21.3281 91.5937L25.5469 91.5937ZM12.5312 93.2187L12.5312 95.2031L26.7812 95.2031L26.7812 93.2188L12.5312 93.2187Z" fill="white"/>
<path d="M26.7812 108.297L26.7812 106.328L12.5625 106.328L12.5625 108.297L19.5781 108.297L19.5781 110.391L21.2187 110.391L21.2187 108.297L26.7812 108.297ZM23.0625 97L23.0625 105.359L24.6562 105.359L24.6562 102.219L26.5625 102.219L26.5625 100.219L24.6562 100.219L24.6562 97L23.0625 97ZM18.875 97.5781C16.8906 97.5703 15.4922 99.1172 15.4844 101.219C15.4922 103.289 16.8906 104.844 18.875 104.844C20.8594 104.844 22.2734 103.289 22.2656 101.219C22.2734 99.1172 20.8594 97.5703 18.875 97.5781ZM18.875 99.4844C19.9687 99.4844 20.6406 100.211 20.6562 101.219C20.6406 102.211 19.9687 102.937 18.875 102.937C17.7734 102.937 17.1172 102.211 17.125 101.219C17.1172 100.211 17.7734 99.4844 18.875 99.4844Z" fill="white"/>
<path d="M26.7812 122.859L26.7812 120.844L12.5625 120.844L12.5625 122.859L26.7812 122.859ZM16.5937 110.953L15 112C17.3984 117.078 20.9844 118.586 25.2969 118.594L25.2969 111.719L23.7344 111.719L23.7344 116.562C20.5781 116.242 18.3281 114.625 16.5937 110.953Z" fill="white"/>
<rect x="38.5" y="0.5" width="134" height="38" transform="rotate(90 38.5 0.5)" stroke="white"/>
</svg>
