<svg width="24" height="281" viewBox="0 0 24 281" fill="none" xmlns="http://www.w3.org/2000/svg">
<path d="M20.1758 129.008L20.1758 131.902L12 131.902L12 133.058L20.1758 133.058L20.1758 135.939L21.1914 135.939L21.1914 129.008L20.1758 129.008Z" fill="white"/>
<path d="M11.873 151.382C11.873 153.42 13.5869 154.594 16.5957 154.594C19.5791 154.594 21.3184 153.401 21.3184 151.382C21.3184 149.357 19.5791 148.164 16.5957 148.17C13.5869 148.164 11.873 149.344 11.873 151.382ZM16.5957 149.275C18.9761 149.281 20.3218 150.062 20.3281 151.382C20.3218 152.702 18.9761 153.483 16.5957 153.477C14.2153 153.483 12.8887 152.709 12.8887 151.382C12.8887 150.049 14.2153 149.281 16.5957 149.275Z" fill="white"/>
<path d="M21.1914 163.267L21.1914 162.112L19.668 159.827L18.5127 159.827L19.998 162.061L19.998 162.112L12 162.112L12 163.267L21.1914 163.267Z" fill="white"/>
<path d="M11.873 172.626C11.873 174.664 13.5869 175.838 16.5957 175.838C19.5791 175.838 21.3184 174.645 21.3184 172.626C21.3184 170.601 19.5791 169.408 16.5957 169.414C13.5869 169.408 11.873 170.589 11.873 172.626ZM16.5957 170.519C18.9761 170.525 20.3218 171.306 20.3281 172.626C20.3218 173.947 18.9761 174.727 16.5957 174.721C14.2153 174.727 12.8887 173.953 12.8887 172.626C12.8887 171.293 14.2153 170.525 16.5957 170.519Z" fill="white"/>
<path d="M13.8789 188.196L13.8789 192.652L12 192.652L12 193.744L13.8789 193.744L13.8789 195.026L14.8818 195.026L14.8818 193.744L21.1914 193.744L21.1914 192.335L14.8184 188.196L13.8789 188.196ZM14.8818 189.427L14.958 189.427L19.7441 192.538L19.7441 192.652L14.8818 192.652L14.8818 189.427Z" fill="white"/>
<path d="M11.873 203.433C11.873 205.267 13.1553 206.6 14.9326 206.607C16.7227 206.6 18.0176 205.312 18.0176 203.56C18.0176 202.912 17.8018 202.297 17.4844 201.884L17.4844 201.795L20.1758 202.138L20.1758 206.162L21.1914 206.162L21.1914 201.186L16.1641 200.538L16.1641 201.643C16.7607 201.979 17.0019 202.582 16.9893 203.357C16.9829 204.594 16.1006 205.489 14.9072 205.489C13.7519 205.489 12.8823 204.626 12.876 203.433C12.8823 202.436 13.4917 201.636 14.3105 201.554L14.3105 200.449C12.895 200.519 11.873 201.776 11.873 203.433Z" fill="white"/>
<path d="M11.873 215.267C11.873 217.102 12.9902 218.473 14.501 218.467C15.6689 218.473 16.5259 217.749 16.71 216.55L16.7734 216.55C17.0464 217.514 17.8081 218.124 18.8555 218.111C20.1694 218.124 21.3184 217.057 21.3184 215.305C21.3184 213.674 20.3408 212.316 18.8809 212.259L18.8809 213.363C19.7822 213.414 20.3218 214.309 20.3281 215.293C20.3218 216.34 19.7124 217.013 18.792 217.007C17.8462 217.013 17.2178 216.232 17.2178 215.115L17.2178 214.366L16.2148 214.366L16.2148 215.115C16.2085 216.543 15.5039 217.343 14.501 217.349C13.5425 217.343 12.8887 216.467 12.8887 215.255C12.8887 214.157 13.4346 213.287 14.3105 213.223L14.3105 212.068C12.8506 212.125 11.873 213.439 11.873 215.267Z" fill="white"/>
<path d="M21.1914 227.267L21.1914 226.112L19.668 223.827L18.5127 223.827L19.998 226.061L19.998 226.112L12 226.112L12 227.267L21.1914 227.267Z" fill="white"/>
<path d="M11.873 243.954C11.873 245.788 12.9902 247.159 14.501 247.153C15.6689 247.159 16.5259 246.436 16.71 245.236L16.7734 245.236C17.0464 246.201 17.8081 246.81 18.8555 246.797C20.1694 246.81 21.3184 245.744 21.3184 243.992C21.3184 242.36 20.3408 241.002 18.8809 240.945L18.8809 242.049C19.7822 242.1 20.3218 242.995 20.3281 243.979C20.3218 245.026 19.7124 245.699 18.792 245.693C17.8462 245.699 17.2178 244.919 17.2178 243.801L17.2178 243.052L16.2148 243.052L16.2148 243.801C16.2085 245.23 15.5039 246.029 14.501 246.036C13.5425 246.029 12.8887 245.153 12.8887 243.941C12.8887 242.843 13.4346 241.973 14.3105 241.91L14.3105 240.754C12.8506 240.812 11.873 242.126 11.873 243.954Z" fill="white"/>
<path d="M13.8789 252.475L13.8789 256.931L12 256.931L12 258.023L13.8789 258.023L13.8789 259.305L14.8818 259.305L14.8818 258.023L21.1914 258.023L21.1914 256.613L14.8184 252.475L13.8789 252.475ZM14.8818 253.706L14.958 253.706L19.7441 256.817L19.7441 256.931L14.8818 256.931L14.8818 253.706Z" fill="white"/>
<path d="M21.1914 267.839L21.1914 266.683L19.668 264.398L18.5127 264.398L19.998 266.633L19.998 266.683L12 266.683L12 267.839L21.1914 267.839Z" fill="white"/>
<path d="M11.873 277.185C11.873 279.019 13.1553 280.352 14.9326 280.359C16.7226 280.352 18.0176 279.064 18.0176 277.312C18.0176 276.664 17.8018 276.049 17.4844 275.636L17.4844 275.547L20.1758 275.89L20.1758 279.914L21.1914 279.914L21.1914 274.938L16.1641 274.29L16.1641 275.395C16.7607 275.731 17.0019 276.334 16.9893 277.109C16.9829 278.347 16.1006 279.242 14.9072 279.242C13.7519 279.242 12.8823 278.378 12.876 277.185C12.8823 276.188 13.4917 275.389 14.3105 275.306L14.3105 274.202C12.895 274.271 11.873 275.528 11.873 277.185Z" fill="white"/>
<path d="M12 10.5V16.5M12 16.5L9 13.5M12 16.5L15 13.5M17 21.5H7C6.46957 21.5 5.96086 21.2893 5.58579 20.9142C5.21071 20.5391 5 20.0304 5 19.5V5.5C5 4.96957 5.21071 4.46086 5.58579 4.08579C5.96086 3.71071 6.46957 3.5 7 3.5H12.586C12.8512 3.50006 13.1055 3.60545 13.293 3.793L18.707 9.207C18.8946 9.39449 18.9999 9.6488 19 9.914V19.5C19 20.0304 18.7893 20.5391 18.4142 20.9142C18.0391 21.2893 17.5304 21.5 17 21.5Z" stroke="white" stroke-width="2" stroke-linecap="round" stroke-linejoin="round"/>
<path fill-rule="evenodd" clip-rule="evenodd" d="M7.465 41.566C8.638 41.512 9.012 41.5 12 41.5C14.988 41.5 15.362 41.513 16.534 41.566C17.706 41.619 18.506 41.806 19.206 42.077C19.939 42.354 20.604 42.787 21.154 43.347C21.714 43.896 22.146 44.56 22.422 45.294C22.694 45.994 22.88 46.794 22.934 47.964C22.988 49.139 23 49.513 23 52.5C23 55.488 22.987 55.862 22.934 57.035C22.881 58.205 22.694 59.005 22.422 59.705C22.146 60.4391 21.7133 61.1042 21.154 61.654C20.604 62.214 19.939 62.646 19.206 62.922C18.506 63.194 17.706 63.38 16.536 63.434C15.362 63.488 14.988 63.5 12 63.5C9.012 63.5 8.638 63.487 7.465 63.434C6.295 63.381 5.495 63.194 4.795 62.922C4.06092 62.646 3.39582 62.2133 2.846 61.654C2.28638 61.1047 1.85331 60.4399 1.577 59.706C1.306 59.006 1.12 58.206 1.066 57.036C1.012 55.861 1 55.487 1 52.5C1 49.512 1.013 49.138 1.066 47.966C1.119 46.794 1.306 45.994 1.577 45.294C1.85372 44.5601 2.28712 43.8953 2.847 43.346C3.39604 42.7865 4.06047 42.3534 4.794 42.077C5.494 41.806 6.294 41.62 7.464 41.566H7.465ZM16.445 43.546C15.285 43.493 14.937 43.482 12 43.482C9.063 43.482 8.715 43.493 7.555 43.546C6.482 43.595 5.9 43.774 5.512 43.925C4.999 44.125 4.632 44.362 4.247 44.747C3.88205 45.1021 3.60118 45.5343 3.425 46.012C3.274 46.4 3.095 46.982 3.046 48.055C2.993 49.215 2.982 49.563 2.982 52.5C2.982 55.437 2.993 55.785 3.046 56.945C3.095 58.018 3.274 58.6 3.425 58.988C3.601 59.465 3.882 59.898 4.247 60.253C4.602 60.618 5.035 60.899 5.512 61.075C5.9 61.226 6.482 61.405 7.555 61.454C8.715 61.507 9.062 61.518 12 61.518C14.938 61.518 15.285 61.507 16.445 61.454C17.518 61.405 18.1 61.226 18.488 61.075C19.001 60.875 19.368 60.638 19.753 60.253C20.118 59.898 20.399 59.465 20.575 58.988C20.726 58.6 20.905 58.018 20.954 56.945C21.007 55.785 21.018 55.437 21.018 52.5C21.018 49.563 21.007 49.215 20.954 48.055C20.905 46.982 20.726 46.4 20.575 46.012C20.375 45.499 20.138 45.132 19.753 44.747C19.3979 44.3821 18.9657 44.1012 18.488 43.925C18.1 43.774 17.518 43.595 16.445 43.546V43.546ZM10.595 55.891C11.3797 56.2176 12.2534 56.2617 13.0669 56.0157C13.8805 55.7697 14.5834 55.2489 15.0556 54.5422C15.5278 53.8356 15.7401 52.9869 15.656 52.1411C15.572 51.2953 15.197 50.505 14.595 49.905C14.2112 49.5215 13.7472 49.2278 13.2363 49.0451C12.7255 48.8625 12.1804 48.7954 11.6405 48.8486C11.1006 48.9019 10.5792 49.0742 10.1138 49.3531C9.64846 49.6321 9.25074 50.0107 8.9493 50.4619C8.64786 50.913 8.45019 51.4253 8.37052 51.962C8.29084 52.4986 8.33115 53.0463 8.48854 53.5655C8.64593 54.0847 8.91648 54.5626 9.28072 54.9647C9.64496 55.3668 10.0938 55.6832 10.595 55.891ZM8.002 48.502C8.52702 47.977 9.15032 47.5605 9.8363 47.2764C10.5223 46.9922 11.2575 46.846 12 46.846C12.7425 46.846 13.4777 46.9922 14.1637 47.2764C14.8497 47.5605 15.473 47.977 15.998 48.502C16.523 49.027 16.9395 49.6503 17.2236 50.3363C17.5078 51.0223 17.654 51.7575 17.654 52.5C17.654 53.2425 17.5078 53.9777 17.2236 54.6637C16.9395 55.3497 16.523 55.973 15.998 56.498C14.9377 57.5583 13.4995 58.154 12 58.154C10.5005 58.154 9.06234 57.5583 8.002 56.498C6.94166 55.4377 6.34597 53.9995 6.34597 52.5C6.34597 51.0005 6.94166 49.5623 8.002 48.502V48.502ZM18.908 47.688C19.0381 47.5653 19.1423 47.4177 19.2143 47.254C19.2863 47.0903 19.3248 46.9138 19.3274 46.7349C19.33 46.5561 19.2967 46.3785 19.2295 46.2128C19.1622 46.0471 19.0624 45.8965 18.936 45.77C18.8095 45.6436 18.6589 45.5438 18.4932 45.4765C18.3275 45.4093 18.1499 45.376 17.9711 45.3786C17.7922 45.3812 17.6157 45.4197 17.452 45.4917C17.2883 45.5637 17.1407 45.6679 17.018 45.798C16.7793 46.051 16.6486 46.3871 16.6537 46.7349C16.6588 47.0827 16.7992 47.4149 17.0452 47.6608C17.2911 47.9068 17.6233 48.0472 17.9711 48.0523C18.3189 48.0574 18.655 47.9267 18.908 47.688V47.688Z" fill="white"/>
<path fill-rule="evenodd" clip-rule="evenodd" d="M10.2236 98.7591C10.8 98.8381 11.3938 98.8791 12 98.8791C17.5231 98.8791 22 95.4362 22 91.1901C22 86.9429 17.5231 83.5 12 83.5C6.47693 83.5 2 86.9429 2 91.1901C2 93.9348 3.87179 96.3445 6.68719 97.7048C6.53436 98.22 5.70256 101.019 5.66975 101.239C5.66975 101.239 5.65026 101.405 5.76 101.468C5.86974 101.531 5.99794 101.482 5.99794 101.482C6.31282 101.439 9.64717 99.1552 10.2236 98.7591Z" fill="white"/>
</svg>
