<svg width="145" height="19" viewBox="0 0 145 19" fill="none" xmlns="http://www.w3.org/2000/svg">
<path d="M16.4648 1.80469C16.4727 2.49219 16.5117 3.17578 16.582 3.85547C16.6523 4.52734 16.75 5.19531 16.875 5.85938L15.6914 6.09375C15.4883 4.98438 14.9648 4.14844 14.1211 3.58594C13.2852 3.01562 12.1445 2.73047 10.6992 2.73047C8.75391 2.73047 7.24219 3.30859 6.16406 4.46484C5.09375 5.62109 4.55859 7.24609 4.55859 9.33984C4.55859 11.5664 5.14062 13.3438 6.30469 14.6719C7.47656 15.9922 9.03125 16.6523 10.9688 16.6523C11.4062 16.6523 11.8359 16.6133 12.2578 16.5352C12.6875 16.4492 13.1133 16.3203 13.5352 16.1484C13.543 15.7969 13.5508 15.3359 13.5586 14.7656C13.5742 14.1875 13.582 13.8242 13.582 13.6758C13.582 12.5352 13.4453 11.8242 13.1719 11.543C12.8984 11.2539 12.3008 11.1094 11.3789 11.1094H11.0391V10.0664C11.8516 10.1055 12.5391 10.1328 13.1016 10.1484C13.6641 10.1641 14.1758 10.1719 14.6367 10.1719C15.1367 10.1719 15.6836 10.1641 16.2773 10.1484C16.8711 10.1328 17.5977 10.1055 18.457 10.0664V11.1094H18.1172C17.5 11.1094 17.0938 11.25 16.8984 11.5312C16.7031 11.8125 16.6055 12.5938 16.6055 13.875V15.0234C16.6055 15.4531 16.6133 15.8672 16.6289 16.2656C16.6445 16.6641 16.668 17.0586 16.6992 17.4492C14.8555 17.8555 13.4961 18.1211 12.6211 18.2461C11.7461 18.3711 10.9531 18.4336 10.2422 18.4336C7.44531 18.4336 5.19922 17.6445 3.50391 16.0664C1.80859 14.4883 0.960938 12.3984 0.960938 9.79688C0.960938 7.13281 1.87891 4.98047 3.71484 3.33984C5.55859 1.69141 7.96875 0.867188 10.9453 0.867188C11.8672 0.867188 12.7891 0.945312 13.7109 1.10156C14.6406 1.25781 15.5586 1.49219 16.4648 1.80469Z" fill="black"/>
<path d="M34.5117 9.9375C34.5117 7.72656 34 5.94922 32.9766 4.60547C31.9531 3.26172 30.6094 2.58984 28.9453 2.58984C27.3516 2.58984 26.0781 3.1875 25.125 4.38281C24.1797 5.57812 23.707 7.19531 23.707 9.23438C23.707 11.4609 24.2227 13.25 25.2539 14.6016C26.293 15.9531 27.6406 16.6289 29.2969 16.6289C30.8984 16.6289 32.168 16.0312 33.1055 14.8359C34.043 13.6406 34.5117 12.0078 34.5117 9.9375ZM29.1328 0.84375C30.375 0.84375 31.4844 1.01562 32.4609 1.35938C33.4375 1.69531 34.3359 2.21875 35.1562 2.92969C36.1094 3.75781 36.8438 4.74609 37.3594 5.89453C37.875 7.03516 38.1328 8.24609 38.1328 9.52734C38.1328 12.0742 37.2695 14.1953 35.543 15.8906C33.8164 17.5859 31.6562 18.4336 29.0625 18.4336C27.7109 18.4336 26.4883 18.2148 25.3945 17.7773C24.3008 17.332 23.332 16.6719 22.4883 15.7969C21.707 14.9766 21.1094 14.043 20.6953 12.9961C20.2891 11.9414 20.0859 10.8242 20.0859 9.64453C20.0859 8.33984 20.3398 7.12891 20.8477 6.01172C21.3633 4.88672 22.1094 3.90625 23.0859 3.07031C23.8984 2.36719 24.8359 1.82031 25.8984 1.42969C26.9609 1.03906 28.0391 0.84375 29.1328 0.84375Z" fill="black"/>
<path d="M39.7148 1.30078C40.0117 1.30859 40.4766 1.33203 41.1094 1.37109C41.75 1.40234 42.207 1.41797 42.4805 1.41797C42.7227 1.41797 43.1445 1.40234 43.7461 1.37109C44.3555 1.33203 44.8047 1.30859 45.0938 1.30078C45.2031 1.58984 45.3633 1.89844 45.5742 2.22656C45.7852 2.54688 46.0625 2.91016 46.4062 3.31641L55.0195 13.4766C55.0117 12.4609 55 11.1055 54.9844 9.41016C54.9531 5.68359 54.8945 3.64844 54.8086 3.30469C54.6992 2.92969 54.5273 2.67578 54.293 2.54297C54.0586 2.40234 53.6719 2.33203 53.1328 2.33203H52.7461V1.30078C53.5977 1.33984 54.2461 1.37109 54.6914 1.39453C55.1367 1.41016 55.5039 1.41797 55.793 1.41797C56.1367 1.41797 56.5508 1.41016 57.0352 1.39453C57.5195 1.37109 58.1289 1.33984 58.8633 1.30078V2.33203H58.6523C58.1523 2.33203 57.7852 2.39062 57.5508 2.50781C57.3164 2.61719 57.1484 2.8125 57.0469 3.09375C56.9219 3.46875 56.832 5.23047 56.7773 8.37891V8.56641L56.7305 11.1094C56.7148 12.0859 56.7031 13.0039 56.6953 13.8633C56.6875 14.7148 56.6836 15.4297 56.6836 16.0078C56.6836 16.3906 56.6953 16.7617 56.7188 17.1211C56.75 17.4805 56.793 17.8281 56.8477 18.1641H54.5508C54.457 17.9688 54.3203 17.7461 54.1406 17.4961C53.9609 17.2461 53.6172 16.8203 53.1094 16.2188L43.6523 5.15625C43.6523 8.85156 43.6719 11.5039 43.7109 13.1133C43.75 14.7148 43.8086 15.6602 43.8867 15.9492C43.9961 16.3242 44.168 16.5859 44.4023 16.7344C44.6445 16.875 45.0352 16.9453 45.5742 16.9453H45.9375V18C45.0469 17.9531 44.3711 17.9219 43.9102 17.9062C43.457 17.8906 43.082 17.8828 42.7852 17.8828C42.5352 17.8828 42.1914 17.8906 41.7539 17.9062C41.3242 17.9219 40.6367 17.9531 39.6914 18V16.9453C39.7539 16.9531 39.8164 16.9609 39.8789 16.9688C39.9492 16.9688 40.0469 16.9688 40.1719 16.9688C41.2891 16.9688 41.8594 15.4336 41.8828 12.3633C41.8906 11.6836 41.8945 11.1562 41.8945 10.7812L41.9297 8.28516C41.9297 7.77734 41.9375 7.05078 41.9531 6.10547C41.9688 5.15234 41.9766 4.54297 41.9766 4.27734C41.9766 3.51953 41.8438 3.00391 41.5781 2.73047C41.3125 2.44922 40.8359 2.30859 40.1484 2.30859C40.1016 2.30859 40.0273 2.3125 39.9258 2.32031C39.832 2.32812 39.7617 2.33203 39.7148 2.33203V1.30078Z" fill="black"/>
<path d="M75.8555 1.80469C75.8633 2.49219 75.9023 3.17578 75.9727 3.85547C76.043 4.52734 76.1406 5.19531 76.2656 5.85938L75.082 6.09375C74.8789 4.98438 74.3555 4.14844 73.5117 3.58594C72.6758 3.01562 71.5352 2.73047 70.0898 2.73047C68.1445 2.73047 66.6328 3.30859 65.5547 4.46484C64.4844 5.62109 63.9492 7.24609 63.9492 9.33984C63.9492 11.5664 64.5312 13.3438 65.6953 14.6719C66.8672 15.9922 68.4219 16.6523 70.3594 16.6523C70.7969 16.6523 71.2266 16.6133 71.6484 16.5352C72.0781 16.4492 72.5039 16.3203 72.9258 16.1484C72.9336 15.7969 72.9414 15.3359 72.9492 14.7656C72.9648 14.1875 72.9727 13.8242 72.9727 13.6758C72.9727 12.5352 72.8359 11.8242 72.5625 11.543C72.2891 11.2539 71.6914 11.1094 70.7695 11.1094H70.4297V10.0664C71.2422 10.1055 71.9297 10.1328 72.4922 10.1484C73.0547 10.1641 73.5664 10.1719 74.0273 10.1719C74.5273 10.1719 75.0742 10.1641 75.668 10.1484C76.2617 10.1328 76.9883 10.1055 77.8477 10.0664V11.1094H77.5078C76.8906 11.1094 76.4844 11.25 76.2891 11.5312C76.0938 11.8125 75.9961 12.5938 75.9961 13.875V15.0234C75.9961 15.4531 76.0039 15.8672 76.0195 16.2656C76.0352 16.6641 76.0586 17.0586 76.0898 17.4492C74.2461 17.8555 72.8867 18.1211 72.0117 18.2461C71.1367 18.3711 70.3438 18.4336 69.6328 18.4336C66.8359 18.4336 64.5898 17.6445 62.8945 16.0664C61.1992 14.4883 60.3516 12.3984 60.3516 9.79688C60.3516 7.13281 61.2695 4.98047 63.1055 3.33984C64.9492 1.69141 67.3594 0.867188 70.3359 0.867188C71.2578 0.867188 72.1797 0.945312 73.1016 1.10156C74.0312 1.25781 74.9492 1.49219 75.8555 1.80469Z" fill="black"/>
<path d="M90.7852 1.78125V2.03906C90.7852 2.60938 90.8164 3.19531 90.8789 3.79688C90.9492 4.39062 91.0508 5.00391 91.1836 5.63672L89.9648 5.83594C89.832 4.82031 89.4531 4.05469 88.8281 3.53906C88.2109 3.02344 87.3594 2.76562 86.2734 2.76562C85.2656 2.76562 84.4766 2.96484 83.9062 3.36328C83.3359 3.76172 83.0508 4.3125 83.0508 5.01562C83.0508 5.48438 83.168 5.89062 83.4023 6.23438C83.6367 6.57031 84 6.86719 84.4922 7.125C84.875 7.32812 85.5352 7.58594 86.4727 7.89844C87.418 8.21094 88.1172 8.45703 88.5703 8.63672C89.5938 9.05859 90.3594 9.60938 90.8672 10.2891C91.3828 10.9688 91.6406 11.7773 91.6406 12.7148C91.6406 14.418 90.9883 15.7773 89.6836 16.793C88.3789 17.8086 86.6094 18.3164 84.375 18.3164C83.6406 18.3164 82.8984 18.2422 82.1484 18.0938C81.3984 17.9531 80.668 17.7461 79.957 17.4727C79.957 17.3867 79.9609 17.2734 79.9688 17.1328C79.9766 16.9844 79.9805 16.875 79.9805 16.8047C79.9805 16.2031 79.9414 15.5898 79.8633 14.9648C79.793 14.3398 79.6797 13.6953 79.5234 13.0312L80.8008 12.7148C81.0977 14.1523 81.5742 15.1562 82.2305 15.7266C82.8945 16.2969 83.8789 16.582 85.1836 16.582C86.2383 16.582 87.0703 16.3477 87.6797 15.8789C88.2891 15.4102 88.5938 14.7812 88.5938 13.9922C88.5938 12.8672 87.5195 11.9258 85.3711 11.168C84.8945 11.0039 84.5312 10.875 84.2812 10.7812C82.7969 10.2266 81.7305 9.58203 81.082 8.84766C80.4414 8.11328 80.1211 7.19531 80.1211 6.09375C80.1211 4.57812 80.707 3.35547 81.8789 2.42578C83.0508 1.49609 84.6016 1.03125 86.5312 1.03125C87.2031 1.03125 87.8828 1.09375 88.5703 1.21875C89.2656 1.33594 90.0039 1.52344 90.7852 1.78125Z" fill="black"/>
<path d="M97.125 16.9453H97.5586C98.082 16.9453 98.4648 16.8906 98.707 16.7812C98.9492 16.6641 99.1289 16.4609 99.2461 16.1719C99.3242 15.9531 99.3789 15.4219 99.4102 14.5781C99.4414 13.7344 99.457 12.1719 99.457 9.89062V3.1875H97.4414C96.2148 3.1875 95.375 3.35938 94.9219 3.70312C94.4688 4.04688 94.1562 4.70703 93.9844 5.68359L92.8828 5.44922C93.0625 4.67578 93.1992 3.9375 93.293 3.23438C93.3945 2.52344 93.457 1.82422 93.4805 1.13672C93.7773 1.23828 94.1953 1.3125 94.7344 1.35938C95.2734 1.39844 96.1836 1.41797 97.4648 1.41797H100.055H101.52H104.496C105.934 1.41797 106.934 1.39844 107.496 1.35938C108.066 1.3125 108.484 1.23438 108.75 1.125V1.48828C108.75 2.09766 108.773 2.73047 108.82 3.38672C108.875 4.03516 108.953 4.72266 109.055 5.44922L108 5.61328C107.867 4.66016 107.598 4.01953 107.191 3.69141C106.785 3.35547 105.984 3.1875 104.789 3.1875H104.496H102.727C102.703 4.4375 102.688 5.66797 102.68 6.87891C102.672 8.08984 102.668 9.5 102.668 11.1094V13.3008C102.668 14.332 102.691 15.0547 102.738 15.4688C102.785 15.8828 102.859 16.1914 102.961 16.3945C103.078 16.5898 103.262 16.7305 103.512 16.8164C103.762 16.9023 104.113 16.9453 104.566 16.9453H104.977V18C104.781 17.9922 104.492 17.9805 104.109 17.9648C102.578 17.8945 101.531 17.8594 100.969 17.8594C100.562 17.8594 100.039 17.8711 99.3984 17.8945C98.7656 17.918 98.0078 17.9531 97.125 18V16.9453Z" fill="black"/>
<path d="M116.426 4.00781L113.871 10.4883C114.168 10.4961 114.48 10.5039 114.809 10.5117C115.145 10.5117 115.59 10.5117 116.145 10.5117C116.785 10.5117 117.285 10.5117 117.645 10.5117C118.004 10.5039 118.34 10.4961 118.652 10.4883L116.426 4.00781ZM115.781 1.19531H118.641C119.766 4.49219 120.836 7.52344 121.852 10.2891C122.875 13.0469 123.59 14.8828 123.996 15.7969C124.168 16.2109 124.383 16.5078 124.641 16.6875C124.906 16.8594 125.258 16.9453 125.695 16.9453H125.953V18C124.961 17.9531 124.199 17.9219 123.668 17.9062C123.137 17.8906 122.691 17.8828 122.332 17.8828C121.988 17.8828 121.543 17.8906 120.996 17.9062C120.449 17.9219 119.656 17.9531 118.617 18V16.9453H118.828C119.445 16.9453 119.863 16.875 120.082 16.7344C120.301 16.5938 120.41 16.3438 120.41 15.9844C120.41 15.875 120.395 15.7461 120.363 15.5977C120.34 15.4492 120.285 15.2422 120.199 14.9766L119.238 12.1406C118.793 12.1328 118.207 12.125 117.48 12.1172C116.754 12.1016 116.301 12.0938 116.121 12.0938C115.785 12.0938 115.109 12.1055 114.094 12.1289C113.727 12.1367 113.441 12.1406 113.238 12.1406L113.191 12.2578C112.426 14.125 112.043 15.3047 112.043 15.7969C112.043 16.2031 112.156 16.4961 112.383 16.6758C112.617 16.8555 113 16.9453 113.531 16.9453H113.742V18C112.852 17.9531 112.16 17.9219 111.668 17.9062C111.176 17.8906 110.77 17.8828 110.449 17.8828C110.184 17.8828 109.832 17.8906 109.395 17.9062C108.965 17.9219 108.336 17.9531 107.508 18V16.9453C108.07 16.9453 108.52 16.8477 108.855 16.6523C109.191 16.457 109.477 16.1289 109.711 15.668C110.047 15.0586 110.805 13.3555 111.984 10.5586C113.164 7.76172 114.43 4.64062 115.781 1.19531Z" fill="black"/>
<path d="M132.422 9.57422C132.836 9.59766 133.188 9.61719 133.477 9.63281C133.766 9.64062 134.008 9.64453 134.203 9.64453C134.445 9.64453 134.703 9.64062 134.977 9.63281C135.25 9.61719 135.535 9.59766 135.832 9.57422C136.512 9.13672 137.008 8.64062 137.32 8.08594C137.641 7.52344 137.801 6.86719 137.801 6.11719C137.801 5.14062 137.469 4.35156 136.805 3.75C136.148 3.14062 135.273 2.83594 134.18 2.83594C133.844 2.83594 133.535 2.84766 133.254 2.87109C132.98 2.89453 132.711 2.92969 132.445 2.97656C132.438 3.82812 132.43 4.71875 132.422 5.64844C132.422 6.57812 132.422 7.88672 132.422 9.57422ZM127.172 16.9688C127.234 16.9766 127.293 16.9844 127.348 16.9922C127.41 16.9922 127.504 16.9922 127.629 16.9922C128.27 16.9922 128.699 16.7812 128.918 16.3594C129.145 15.9375 129.258 14.8203 129.258 13.0078V12.1406V11.332V10.8984L129.305 8.27344C129.312 7.71875 129.316 7.16797 129.316 6.62109C129.324 6.07422 129.328 5.41797 129.328 4.65234C129.328 3.66797 129.207 3.03125 128.965 2.74219C128.73 2.45312 128.285 2.30859 127.629 2.30859H127.383V1.27734C128.219 1.31641 128.91 1.34766 129.457 1.37109C130.004 1.38672 130.48 1.39453 130.887 1.39453C131.465 1.39453 132.184 1.375 133.043 1.33594C133.902 1.29688 134.48 1.27734 134.777 1.27734C136.715 1.27734 138.242 1.67969 139.359 2.48438C140.477 3.28906 141.035 4.38281 141.035 5.76562C141.035 6.6875 140.754 7.5 140.191 8.20312C139.637 8.90625 138.801 9.50781 137.684 10.0078L139.98 13.2422C141.074 14.9453 141.871 16.0156 142.371 16.4531C142.879 16.8906 143.418 17.1094 143.988 17.1094C144.02 17.1094 144.062 17.1055 144.117 17.0977C144.18 17.0898 144.227 17.0859 144.258 17.0859V18.0703C143.781 18.1094 143.367 18.1367 143.016 18.1523C142.664 18.1758 142.355 18.1875 142.09 18.1875C141.137 18.1875 140.391 18.082 139.852 17.8711C139.312 17.6602 138.828 17.2969 138.398 16.7812C138.195 16.5391 137.695 15.7617 136.898 14.4492C136.102 13.1289 135.402 12 134.801 11.0625C134.316 11.0781 133.887 11.0898 133.512 11.0977C133.137 11.1055 132.773 11.1094 132.422 11.1094V14.2266C132.422 15.4219 132.539 16.1758 132.773 16.4883C133.008 16.793 133.469 16.9453 134.156 16.9453H134.484V18C133.844 17.9609 133.203 17.9336 132.562 17.918C131.922 17.8945 131.266 17.8828 130.594 17.8828C130.375 17.8828 130.051 17.8906 129.621 17.9062C129.199 17.9141 128.383 17.9453 127.172 18V16.9688Z" fill="black"/>
</svg>
