<svg width="149" height="148" viewBox="0 0 149 148" fill="none" xmlns="http://www.w3.org/2000/svg">
<circle cx="74.8333" cy="74" r="74" fill="#CFE2FF"/>
<path d="M85.4172 83.2166L90.3638 78.2653L82.9415 70.8406L91.1898 62.5923L86.2432 57.6433L77.9925 65.8916L70.5678 58.467L65.6165 63.416L85.4172 83.2166V83.2166ZM82.1155 86.516L62.3172 66.7176L55.7185 73.3163L75.5168 93.1146L82.1155 86.516V86.516ZM77.9925 59.293L84.5912 52.692C85.0287 52.2545 85.6221 52.0088 86.2408 52.0088C86.8595 52.0088 87.4529 52.2545 87.8905 52.692L96.1412 60.9426C96.5786 61.3802 96.8243 61.9736 96.8243 62.5923C96.8243 63.211 96.5786 63.8044 96.1412 64.242L89.5402 70.8406L95.3152 76.6156C95.5321 76.8323 95.7042 77.0897 95.8216 77.3729C95.939 77.6562 95.9995 77.9598 95.9995 78.2665C95.9995 78.5731 95.939 78.8767 95.8216 79.16C95.7042 79.4432 95.5321 79.7006 95.3152 79.9173L77.1665 98.066C76.7289 98.5034 76.1355 98.7491 75.5168 98.7491C74.8981 98.7491 74.3047 98.5034 73.8672 98.066L50.7672 74.966C50.3297 74.5284 50.084 73.935 50.084 73.3163C50.084 72.6976 50.3297 72.1042 50.7672 71.6666L68.9158 53.518C69.1325 53.301 69.3899 53.1289 69.6731 53.0115C69.9564 52.8941 70.26 52.8336 70.5667 52.8336C70.8733 52.8336 71.1769 52.8941 71.4602 53.0115C71.7434 53.1289 72.0008 53.301 72.2175 53.518L77.9925 59.293V59.293Z" fill="#0D6EFD"/>
</svg>
