<svg width="80" height="80" viewBox="0 0 80 80" fill="none" xmlns="http://www.w3.org/2000/svg">
<path d="M20 6.6665C24.2526 6.66533 28.4246 7.82638 32.0653 10.0242C35.7059 12.222 38.6767 15.3729 40.6566 19.1365C42.6568 16.3101 45.3062 14.0051 48.3821 12.4152C51.4581 10.8253 54.8707 9.99698 58.3333 9.99984H70V18.3332C70 24.0795 67.7172 29.5905 63.6539 33.6538C59.5906 37.7171 54.0796 39.9998 48.3333 39.9998H43.3333V43.3332H60V66.6665C60 68.4346 59.2976 70.1303 58.0473 71.3806C56.7971 72.6308 55.1014 73.3332 53.3333 73.3332H26.6666C24.8985 73.3332 23.2028 72.6308 21.9526 71.3806C20.7023 70.1303 20 68.4346 20 66.6665V43.3332H36.6666V36.6665H30C23.8116 36.6665 17.8766 34.2082 13.5008 29.8323C9.12495 25.4565 6.66663 19.5216 6.66663 13.3332V6.6665H20ZM53.3333 49.9998H26.6666V66.6665H53.3333V49.9998ZM63.3333 16.6665H58.3333C54.355 16.6665 50.5397 18.2469 47.7267 21.0599C44.9136 23.8729 43.3333 27.6883 43.3333 31.6665V33.3332H48.3333C50.3031 33.3332 52.2537 32.9452 54.0735 32.1914C55.8934 31.4375 57.547 30.3327 58.9399 28.9398C60.3328 27.5469 61.4377 25.8933 62.1915 24.0734C62.9453 22.2535 63.3333 20.303 63.3333 18.3332V16.6665ZM20 13.3332H13.3333C13.3333 17.7534 15.0892 21.9927 18.2148 25.1183C21.3405 28.2439 25.5797 29.9998 30 29.9998H36.6666C36.6666 25.5796 34.9107 21.3403 31.7851 18.2147C28.6595 15.0891 24.4202 13.3332 20 13.3332V13.3332Z" fill="#6610F2"/>
</svg>
