<svg width="80" height="80" viewBox="0 0 80 80" fill="none" xmlns="http://www.w3.org/2000/svg">
<path d="M55.12 53.1666L62.1867 46.0933L51.5833 35.4866L63.3667 23.7033L56.3 16.6333L44.5133 28.4166L33.9067 17.8099L26.8333 24.8799L55.12 53.1666V53.1666ZM50.4033 57.8799L22.12 29.5966L12.6933 39.0233L40.9767 67.3066L50.4033 57.8799V57.8799ZM44.5133 18.9899L53.94 9.55994C54.5651 8.93504 55.4128 8.58398 56.2967 8.58398C57.1805 8.58398 58.0282 8.93504 58.6533 9.55994L70.44 21.3466C71.0649 21.9717 71.416 22.8194 71.416 23.7033C71.416 24.5872 71.0649 25.4348 70.44 26.0599L61.01 35.4866L69.26 43.7366C69.5699 44.0462 69.8158 44.4138 69.9835 44.8185C70.1513 45.2231 70.2376 45.6569 70.2376 46.0949C70.2376 46.533 70.1513 46.9667 69.9835 47.3714C69.8158 47.7761 69.5699 48.1437 69.26 48.4533L43.3333 74.3799C42.7082 75.0048 41.8605 75.3559 40.9767 75.3559C40.0928 75.3559 39.2451 75.0048 38.62 74.3799L5.62 41.3799C4.99509 40.7548 4.64404 39.9072 4.64404 39.0233C4.64404 38.1394 4.99509 37.2917 5.62 36.6666L31.5467 10.7399C31.8562 10.43 32.2239 10.1842 32.6285 10.0164C33.0332 9.84866 33.4669 9.76232 33.905 9.76232C34.3431 9.76232 34.7768 9.84866 35.1815 10.0164C35.5861 10.1842 35.9538 10.43 36.2633 10.7399L44.5133 18.9899V18.9899Z" fill="#0D6EFD"/>
</svg>
