<svg width="80" height="80" viewBox="0 0 80 80" fill="none" xmlns="http://www.w3.org/2000/svg">
<path d="M16.43 9.76318L21.1433 14.4765C18.6634 16.9501 16.6968 19.8894 15.3565 23.1254C14.0162 26.3615 13.3286 29.8305 13.3333 33.3332C13.3333 40.6998 16.3167 47.3665 21.1433 52.1898L16.4333 56.8998C13.3332 53.8087 10.8745 50.1354 9.19844 46.0911C7.52235 42.0467 6.66195 37.7111 6.66665 33.3332C6.66107 28.955 7.52074 24.6188 9.19626 20.5739C10.8718 16.529 13.3301 12.855 16.43 9.76318V9.76318ZM63.57 9.76318C66.6699 12.855 69.1282 16.529 70.8037 20.5739C72.4792 24.6188 73.3389 28.955 73.3333 33.3332C73.3389 37.7114 72.4792 42.0475 70.8037 46.0925C69.1282 50.1374 66.6699 53.8113 63.57 56.9032L58.8566 52.1898C61.3365 49.7163 63.3032 46.777 64.6435 43.5409C65.9838 40.3049 66.6713 36.8358 66.6666 33.3332C66.6666 25.9665 63.6833 19.2999 58.8566 14.4765L63.5666 9.76652L63.57 9.76318ZM25.8567 19.1899L30.5733 23.9065C29.3332 25.1429 28.3497 26.6122 27.6792 28.23C27.0088 29.8477 26.6647 31.582 26.6667 33.3332C26.6667 37.0165 28.16 40.3499 30.5733 42.7599L25.8567 47.4765C23.9967 45.6212 22.5219 43.4166 21.5168 40.9894C20.5117 38.5622 19.9962 35.9603 20 33.3332C20 27.8099 22.24 22.8099 25.8567 19.1899ZM54.1433 19.1899C56.0032 21.0452 57.4781 23.2498 58.4832 25.677C59.4883 28.1042 60.0038 30.7061 60 33.3332C60.0038 35.9603 59.4883 38.5622 58.4832 40.9894C57.4781 43.4166 56.0032 45.6212 54.1433 47.4765L49.4267 42.7599C50.6668 41.5234 51.6503 40.0541 52.3208 38.4364C52.9912 36.8187 53.3353 35.0844 53.3333 33.3332C53.3353 31.582 52.9912 29.8477 52.3208 28.23C51.6503 26.6122 50.6668 25.1429 49.4267 23.9065L54.1433 19.1899V19.1899ZM40 39.9998C38.2319 39.9998 36.5362 39.2975 35.2859 38.0472C34.0357 36.797 33.3333 35.1013 33.3333 33.3332C33.3333 31.5651 34.0357 29.8694 35.2859 28.6191C36.5362 27.3689 38.2319 26.6665 40 26.6665C41.7681 26.6665 43.4638 27.3689 44.714 28.6191C45.9643 29.8694 46.6667 31.5651 46.6667 33.3332C46.6667 35.1013 45.9643 36.797 44.714 38.0472C43.4638 39.2975 41.7681 39.9998 40 39.9998ZM36.6667 46.6665H43.3333V73.3332H36.6667V46.6665Z" fill="#FD7E14"/>
</svg>
