<svg width="80" height="80" viewBox="0 0 80 80" fill="none" xmlns="http://www.w3.org/2000/svg">
<path d="M60.1033 55.3898L74.38 69.6632L69.6633 74.3798L55.39 60.1032C50.0791 64.3606 43.4733 66.6762 36.6666 66.6665C20.1066 66.6665 6.66663 53.2265 6.66663 36.6665C6.66663 20.1065 20.1066 6.6665 36.6666 6.6665C53.2266 6.6665 66.6666 20.1065 66.6666 36.6665C66.6763 43.4732 64.3607 50.079 60.1033 55.3898ZM53.4166 52.9165C57.647 48.5661 60.0095 42.7346 60 36.6665C60 23.7732 49.5566 13.3332 36.6666 13.3332C23.7733 13.3332 13.3333 23.7732 13.3333 36.6665C13.3333 49.5565 23.7733 59.9998 36.6666 59.9998C42.7347 60.0094 48.5662 57.6469 52.9166 53.4165L53.4166 52.9165V52.9165Z" fill="#198754"/>
</svg>
