<svg width="149" height="148" viewBox="0 0 149 148" fill="none" xmlns="http://www.w3.org/2000/svg">
<circle cx="74.1667" cy="74" r="74" fill="#E0CFFC"/>
<path d="M60.0001 50.6667C62.9769 50.6659 65.8973 51.4787 68.4458 53.0171C70.9943 54.5556 73.0738 56.7612 74.4597 59.3957C75.8599 57.4173 77.7144 55.8038 79.8676 54.6908C82.0208 53.5779 84.4096 52.9981 86.8334 53.0001H95.0001V58.8334C95.0001 62.8559 93.4022 66.7136 90.5579 69.5579C87.7136 72.4022 83.8559 74.0001 79.8334 74.0001H76.3334V76.3334H88.0001V92.6667C88.0001 93.9044 87.5084 95.0914 86.6332 95.9666C85.7581 96.8417 84.5711 97.3334 83.3334 97.3334H64.6667C63.4291 97.3334 62.2421 96.8417 61.3669 95.9666C60.4917 95.0914 60.0001 93.9044 60.0001 92.6667V76.3334H71.6667V71.6667H67.0001C62.6682 71.6667 58.5138 69.9459 55.4507 66.8828C52.3876 63.8197 50.6667 59.6653 50.6667 55.3334V50.6667H60.0001ZM83.3334 81.0001H64.6667V92.6667H83.3334V81.0001ZM90.3334 57.6667H86.8334C84.0486 57.6667 81.3779 58.773 79.4088 60.7421C77.4397 62.7113 76.3334 65.382 76.3334 68.1667V69.3334H79.8334C81.2123 69.3334 82.5777 69.0618 83.8516 68.5342C85.1255 68.0065 86.283 67.2331 87.258 66.258C88.233 65.283 89.0065 64.1255 89.5341 62.8516C90.0618 61.5777 90.3334 60.2123 90.3334 58.8334V57.6667ZM60.0001 55.3334H55.3334C55.3334 58.4276 56.5626 61.3951 58.7505 63.583C60.9384 65.7709 63.9059 67.0001 67.0001 67.0001H71.6667C71.6667 63.9059 70.4376 60.9384 68.2497 58.7505C66.0617 56.5626 63.0943 55.3334 60.0001 55.3334Z" fill="#6610F2"/>
</svg>
