<svg width="149" height="148" viewBox="0 0 149 148" fill="none" xmlns="http://www.w3.org/2000/svg">
<circle cx="74.8333" cy="74" r="74" fill="#D1E7DD"/>
<path d="M88.9057 84.7731L98.8993 94.7644L95.5977 98.0661L85.6063 88.0724C81.8887 91.0526 77.2647 92.6735 72.5 92.6667C60.908 92.6667 51.5 83.2587 51.5 71.6667C51.5 60.0747 60.908 50.6667 72.5 50.6667C84.092 50.6667 93.5 60.0747 93.5 71.6667C93.5068 76.4314 91.8858 81.0555 88.9057 84.7731ZM84.225 83.0417C87.1863 79.9965 88.84 75.9144 88.8333 71.6667C88.8333 62.6414 81.523 55.3334 72.5 55.3334C63.4747 55.3334 56.1667 62.6414 56.1667 71.6667C56.1667 80.6897 63.4747 88.0001 72.5 88.0001C76.7477 88.0068 80.8297 86.353 83.875 83.3917L84.225 83.0417Z" fill="#198754"/>
</svg>
