<svg width="149" height="148" viewBox="0 0 149 148" fill="none" xmlns="http://www.w3.org/2000/svg">
<circle cx="74.5" cy="74" r="74" fill="#FFE5D0"/>
<path d="M58.0011 52.8342L61.3004 56.1336C59.5645 57.8651 58.1879 59.9226 57.2497 62.1878C56.3115 64.4531 55.8302 66.8814 55.8334 69.3332C55.8334 74.4899 57.9218 79.1566 61.3004 82.5329L58.0034 85.8299C55.8334 83.6661 54.1123 81.0948 52.939 78.2637C51.7658 75.4327 51.1635 72.3977 51.1668 69.3332C51.1629 66.2685 51.7646 63.2332 52.9375 60.4017C54.1104 57.5703 55.8312 54.9985 58.0011 52.8342ZM90.9991 52.8342C93.169 54.9985 94.8898 57.5703 96.0627 60.4017C97.2356 63.2332 97.8373 66.2685 97.8334 69.3332C97.8373 72.398 97.2356 75.4333 96.0627 78.2647C94.8898 81.0962 93.169 83.6679 90.9991 85.8322L87.6998 82.5329C89.4357 80.8014 90.8123 78.7439 91.7505 76.4786C92.6887 74.2134 93.17 71.7851 93.1668 69.3332C93.1668 64.1766 91.0784 59.5099 87.6998 56.1336L90.9968 52.8366L90.9991 52.8342ZM64.5998 59.4329L67.9014 62.7346C67.0333 63.6 66.3449 64.6286 65.8756 65.761C65.4063 66.8934 65.1654 68.1074 65.1668 69.3332C65.1668 71.9116 66.2121 74.2449 67.9014 75.9319L64.5998 79.2336C63.2978 77.9348 62.2654 76.3916 61.5619 74.6926C60.8583 72.9935 60.4975 71.1722 60.5001 69.3332C60.5001 65.4669 62.0681 61.9669 64.5998 59.4329ZM84.4004 59.4329C85.7024 60.7316 86.7348 62.2749 87.4383 63.9739C88.1419 65.6729 88.5027 67.4943 88.5001 69.3332C88.5027 71.1722 88.1419 72.9935 87.4383 74.6926C86.7348 76.3916 85.7024 77.9348 84.4004 79.2336L81.0988 75.9319C81.9669 75.0664 82.6553 74.0379 83.1246 72.9055C83.5939 71.7731 83.8348 70.559 83.8334 69.3332C83.8348 68.1074 83.5939 66.8934 83.1246 65.761C82.6553 64.6286 81.9669 63.6 81.0988 62.7346L84.4004 59.4329ZM74.5001 73.9999C73.2624 73.9999 72.0754 73.5082 71.2003 72.6331C70.3251 71.7579 69.8334 70.5709 69.8334 69.3332C69.8334 68.0956 70.3251 66.9086 71.2003 66.0334C72.0754 65.1582 73.2624 64.6666 74.5001 64.6666C75.7378 64.6666 76.9248 65.1582 77.7999 66.0334C78.6751 66.9086 79.1668 68.0956 79.1668 69.3332C79.1668 70.5709 78.6751 71.7579 77.7999 72.6331C76.9248 73.5082 75.7378 73.9999 74.5001 73.9999ZM72.1668 78.6666H76.8334V97.3332H72.1668V78.6666Z" fill="#FD7E14"/>
</svg>
