<svg width="80" height="80" viewBox="0 0 80 80" fill="none" xmlns="http://www.w3.org/2000/svg">
<path d="M30 3.3335V10.0002H50V3.3335H56.6666V10.0002H70C70.884 10.0002 71.7319 10.3514 72.357 10.9765C72.9821 11.6016 73.3333 12.4494 73.3333 13.3335V66.6668C73.3333 67.5509 72.9821 68.3987 72.357 69.0239C71.7319 69.649 70.884 70.0002 70 70.0002H9.99996C9.1159 70.0002 8.26806 69.649 7.64294 69.0239C7.01782 68.3987 6.66663 67.5509 6.66663 66.6668V13.3335C6.66663 12.4494 7.01782 11.6016 7.64294 10.9765C8.26806 10.3514 9.1159 10.0002 9.99996 10.0002H23.3333V3.3335H30ZM66.6666 33.3335H13.3333V63.3335H66.6666V33.3335ZM50.12 37.1202L54.8333 41.8335L38.3333 58.3335L26.5466 46.5468L31.2666 41.8335L38.3366 48.9068L50.1233 37.1202H50.12ZM23.3333 16.6668H13.3333V26.6668H66.6666V16.6668H56.6666V20.0002H50V16.6668H30V20.0002H23.3333V16.6668Z" fill="#0DCAF0"/>
</svg>
