<svg width="149" height="148" viewBox="0 0 149 148" fill="none" xmlns="http://www.w3.org/2000/svg">
<circle cx="74.5" cy="74" r="74" fill="#CFF4FC"/>
<path d="M68.0001 48.3333V52.9999H82.0001V48.3333H86.6667V52.9999H96.0001C96.6189 52.9999 97.2124 53.2458 97.65 53.6833C98.0876 54.1209 98.3334 54.7144 98.3334 55.3333V92.6666C98.3334 93.2854 98.0876 93.8789 97.65 94.3165C97.2124 94.7541 96.6189 94.9999 96.0001 94.9999H54.0001C53.3812 94.9999 52.7878 94.7541 52.3502 94.3165C51.9126 93.8789 51.6667 93.2854 51.6667 92.6666V55.3333C51.6667 54.7144 51.9126 54.1209 52.3502 53.6833C52.7878 53.2458 53.3812 52.9999 54.0001 52.9999H63.3334V48.3333H68.0001ZM93.6667 69.3333H56.3334V90.3333H93.6667V69.3333ZM82.0841 71.9839L85.3834 75.2833L73.8334 86.8333L65.5827 78.5826L68.8867 75.2833L73.8357 80.2346L82.0864 71.9839H82.0841ZM63.3334 57.6666H56.3334V64.6666H93.6667V57.6666H86.6667V59.9999H82.0001V57.6666H68.0001V59.9999H63.3334V57.6666Z" fill="#0DCAF0"/>
</svg>
