<svg width="934" height="1236" viewBox="0 0 934 1236" fill="none" xmlns="http://www.w3.org/2000/svg">
<path opacity="0.2" fill-rule="evenodd" clip-rule="evenodd" d="M186 374C186 390.539 187.074 406.826 189.155 422.798C76.1786 487.152 0 608.68 0 748C0 954.054 166.635 1121.19 372.5 1122V1235.5H374.5V1122C580.825 1121.73 748 954.388 748 748C748 731.461 746.927 715.174 744.845 699.202C857.821 634.848 934 513.32 934 374C934 167.446 766.555 0 560 0C353.445 0 186 167.446 186 374ZM471.32 736.394C436.932 728.008 404.412 714.856 374.5 697.676V650.001C424.472 650.251 465.598 687.902 471.32 736.394ZM472.356 736.645C466.742 687.479 425.111 649.251 374.5 649.001V375C563.553 375.248 719.648 516.143 743.766 698.665C689.525 729.433 626.814 747 560 747C529.814 747 500.465 743.414 472.356 736.645ZM471.439 737.453C437.018 729.095 404.459 715.974 374.5 698.829V845.999C428.394 845.73 472 801.957 472 748C472 744.437 471.81 740.918 471.439 737.453ZM374.5 846.999C428.946 846.73 473 802.509 473 748C473 744.522 472.821 741.087 472.471 737.702C500.548 744.434 529.858 748 560 748C626.848 748 689.601 730.462 743.906 699.736C745.947 715.535 747 731.645 747 748C747 953.836 580.272 1120.73 374.5 1121V846.999ZM372.5 845.989V697.676C355.311 687.697 338.99 676.388 323.677 663.89C295.116 681.015 276 712.275 276 748C276 801.623 319.068 845.187 372.5 845.989ZM322.855 663.217C294.173 680.556 275 712.039 275 748C275 802.175 318.515 846.187 372.5 846.989V1121C167.188 1120.19 1 953.502 1 748C1 609.197 76.8162 488.103 189.296 423.869C202.104 519.995 251.424 604.578 322.855 663.217ZM324.594 663.347C339.634 675.598 355.647 686.7 372.5 696.519V650.011C355.045 650.273 338.696 655.098 324.594 663.347ZM372.5 649.011C354.728 649.275 338.091 654.222 323.768 662.672C252.278 604.1 202.94 519.494 190.234 423.335C244.069 392.798 306.247 375.264 372.5 375.003V649.011ZM187 374C187 390.355 188.053 406.465 190.094 422.264C243.993 391.768 306.213 374.263 372.5 374.003V272H374.5V374C563.921 374.248 720.345 515.314 744.704 698.131C857.184 633.897 933 512.803 933 374C933 167.998 766.002 1 560 1C353.998 1 187 167.998 187 374Z" fill="white"/>
</svg>
