<svg width="934" height="1826" viewBox="0 0 934 1826" fill="none" xmlns="http://www.w3.org/2000/svg">
<g clip-path="url(#clip0_198_776)">
<path opacity="0.2" fill-rule="evenodd" clip-rule="evenodd" d="M186 102C186 118.539 187.074 134.826 189.155 150.798C76.1786 215.152 0 336.68 0 476C0 682.054 166.635 849.19 372.5 850V2192.5H374.5V850C580.825 849.73 748 682.388 748 476C748 459.461 746.927 443.174 744.845 427.202C857.821 362.848 934 241.32 934 102C934 -104.554 766.555 -272 560 -272C353.445 -272 186 -104.554 186 102ZM471.32 464.394C436.932 456.008 404.412 442.856 374.5 425.676V378.001C424.472 378.251 465.598 415.902 471.32 464.394ZM472.356 464.645C466.742 415.479 425.111 377.251 374.5 377.001V103C563.553 103.248 719.648 244.143 743.766 426.665C689.525 457.433 626.814 475 560 475C529.814 475 500.465 471.414 472.356 464.645ZM471.439 465.453C437.018 457.095 404.459 443.974 374.5 426.829V573.999C428.394 573.73 472 529.957 472 476C472 472.437 471.81 468.918 471.439 465.453ZM374.5 574.999C428.946 574.73 473 530.509 473 476C473 472.522 472.821 469.087 472.471 465.702C500.548 472.434 529.858 476 560 476C626.848 476 689.601 458.462 743.906 427.736C745.947 443.535 747 459.645 747 476C747 681.836 580.272 848.73 374.5 849V574.999ZM372.5 573.989V425.676C355.311 415.697 338.99 404.388 323.677 391.89C295.116 409.015 276 440.275 276 476C276 529.623 319.068 573.187 372.5 573.989ZM322.855 391.217C294.173 408.556 275 440.039 275 476C275 530.175 318.515 574.187 372.5 574.989V849C167.188 848.19 1 681.502 1 476C1 337.197 76.8162 216.103 189.296 151.869C202.104 247.995 251.424 332.578 322.855 391.217ZM324.594 391.347C339.634 403.598 355.647 414.7 372.5 424.519V378.011C355.045 378.273 338.696 383.098 324.594 391.347ZM372.5 377.011C354.728 377.275 338.091 382.222 323.768 390.672C252.278 332.1 202.94 247.494 190.234 151.335C244.069 120.798 306.247 103.264 372.5 103.003V377.011ZM187 102C187 118.355 188.053 134.465 190.094 150.264C243.993 119.768 306.213 102.263 372.5 102.003V0H374.5V102C563.921 102.248 720.345 243.314 744.704 426.131C857.184 361.897 933 240.803 933 102C933 -104.002 766.002 -271 560 -271C353.998 -271 187 -104.002 187 102Z" fill="white"/>
</g>
<defs>
<clipPath id="clip0_198_776">
<rect width="934" height="1826" fill="white"/>
</clipPath>
</defs>
</svg>
