<svg width="906" height="805" viewBox="0 0 906 805" fill="none" xmlns="http://www.w3.org/2000/svg">
<path opacity="0.2" fill-rule="evenodd" clip-rule="evenodd" d="M272.785 324.182L275.694 143.487L276.694 143.503L273.785 324.198C273.225 358.953 301.544 387.272 336.299 386.713C369.507 386.178 396.298 359.387 396.832 326.179L401.804 17.3776L402.803 17.3937L397.832 326.195C397.289 359.943 370.063 387.169 336.315 387.713C300.996 388.281 272.216 359.502 272.785 324.182Z" fill="black"/>
<path opacity="0.2" fill-rule="evenodd" clip-rule="evenodd" d="M89.3082 425.625L270.026 426.148L270.023 427.148L89.3053 426.625C54.5462 426.525 26.6037 455.215 27.6219 489.959C28.5949 523.157 55.7374 549.592 88.9493 549.688L397.79 550.582L397.787 551.582L88.9464 550.688C55.1947 550.591 27.6112 523.726 26.6224 489.989C25.5875 454.68 53.9842 425.523 89.3082 425.625Z" fill="black"/>
<path opacity="0.2" fill-rule="evenodd" clip-rule="evenodd" d="M332.373 605.453L334.258 250.999L335.258 251.004L333.373 605.458C333.009 673.905 389.373 729.066 457.796 727.227C523.173 725.469 575.359 672.147 575.706 606.747L578.928 0.997281L579.928 1.00261L576.706 606.752C576.356 672.692 523.74 726.454 457.823 728.226C388.835 730.081 332.006 674.464 332.373 605.453Z" fill="black"/>
<path opacity="0.2" fill-rule="evenodd" clip-rule="evenodd" d="M634.47 497.012L631.561 677.707L630.561 677.691L633.47 496.996C634.029 462.241 605.71 433.922 570.956 434.482C537.748 435.017 510.957 461.808 510.422 495.015L505.451 803.817L504.451 803.801L509.422 494.999C509.966 461.252 537.192 434.025 570.939 433.482C606.259 432.914 635.038 461.693 634.47 497.012Z" fill="black"/>
<path opacity="0.2" fill-rule="evenodd" clip-rule="evenodd" d="M292.538 657.899C349.873 657.899 396.352 611.421 396.352 554.086C396.352 496.752 349.873 450.273 292.538 450.273C235.204 450.273 188.725 496.752 188.725 554.086C188.725 611.421 235.204 657.899 292.538 657.899ZM292.538 658.899C350.425 658.899 397.352 611.973 397.352 554.086C397.352 496.199 350.425 449.273 292.538 449.273C234.652 449.273 187.725 496.199 187.725 554.086C187.725 611.973 234.652 658.899 292.538 658.899Z" fill="black"/>
<path opacity="0.2" fill-rule="evenodd" clip-rule="evenodd" d="M583.413 370.894C626.567 370.894 661.55 335.911 661.55 292.756C661.55 249.602 626.567 214.619 583.413 214.619C540.259 214.619 505.275 249.602 505.275 292.756C505.275 335.911 540.259 370.894 583.413 370.894ZM583.413 371.894C627.119 371.894 662.55 336.463 662.55 292.756C662.55 249.05 627.119 213.619 583.413 213.619C539.706 213.619 504.275 249.05 504.275 292.756C504.275 336.463 539.706 371.894 583.413 371.894Z" fill="black"/>
</svg>
