<svg width="563" height="687" viewBox="0 0 563 687" fill="none" xmlns="http://www.w3.org/2000/svg">
<path opacity="0.2" fill-rule="evenodd" clip-rule="evenodd" d="M247 637C353.039 637 439 551.039 439 445C439 338.961 353.039 253 247 253C140.961 253 55 338.961 55 445C55 551.039 140.961 637 247 637ZM247 638C353.591 638 440 551.591 440 445C440 338.409 353.591 252 247 252C140.409 252 54 338.409 54 445C54 551.591 140.409 638 247 638Z" fill="black"/>
<path opacity="0.2" fill-rule="evenodd" clip-rule="evenodd" d="M164 219C224.199 219 273 170.199 273 110C273 49.801 224.199 1 164 1C103.801 1 55 49.801 55 110C55 170.199 103.801 219 164 219ZM164 220C224.751 220 274 170.751 274 110C274 49.2487 224.751 0 164 0C103.249 0 54 49.2487 54 110C54 170.751 103.249 220 164 220Z" fill="black"/>
<path opacity="0.2" fill-rule="evenodd" clip-rule="evenodd" d="M26.1465 276.646L210.146 92.6465L210.854 93.3536L26.8536 277.354C-7.46893 311.676 -7.46896 367.324 26.8536 401.646C61.1761 435.969 116.824 435.969 151.146 401.646L460.146 92.6465L460.854 93.3536L151.854 402.354C117.141 437.067 60.8595 437.067 26.1465 402.354C-8.56659 367.641 -8.56656 311.36 26.1465 276.646Z" fill="black"/>
<path opacity="0.2" fill-rule="evenodd" clip-rule="evenodd" d="M101.646 686.146L410.646 377.146C445.359 342.433 501.64 342.433 536.353 377.146C571.066 411.859 571.066 468.141 536.353 502.854L383.353 655.854L382.646 655.146L535.646 502.146C569.969 467.824 569.969 412.176 535.646 377.854C501.324 343.531 445.676 343.531 411.353 377.854L102.353 686.854L101.646 686.146Z" fill="black"/>
</svg>
