<svg width="897" height="626" viewBox="0 0 897 626" fill="none" xmlns="http://www.w3.org/2000/svg">
<path opacity="0.2" fill-rule="evenodd" clip-rule="evenodd" d="M387.897 481.979L387.897 352.259L388.897 352.259L388.897 481.979C388.897 519.849 419.92 550.377 457.785 549.767C494.798 549.171 524.491 518.997 524.491 481.979L524.491 216L525.491 216L525.491 481.979C525.491 519.543 495.36 550.162 457.801 550.767C419.377 551.386 387.897 520.408 387.897 481.979Z" fill="black"/>
<path opacity="0.2" fill-rule="evenodd" clip-rule="evenodd" d="M0.999926 279.899L266.978 279.899C304.542 279.899 335.162 310.03 335.766 347.589C336.385 386.013 305.407 417.494 266.978 417.494L161.258 417.494L161.258 416.494L266.978 416.494C304.848 416.494 335.376 385.471 334.767 347.605C334.171 310.592 303.996 280.899 266.978 280.899L0.999937 280.899L0.999926 279.899Z" fill="black"/>
<path opacity="0.2" fill-rule="evenodd" clip-rule="evenodd" d="M85.0003 214.866L410.979 214.866C448.543 214.866 479.163 244.997 479.767 282.556C480.386 320.98 449.408 352.461 410.979 352.461L242.549 352.461L242.549 351.461L410.979 351.461C448.849 351.461 479.377 320.438 478.767 282.572C478.172 245.559 447.997 215.866 410.979 215.866L85.0003 215.866L85.0003 214.866Z" fill="black"/>
<path opacity="0.2" fill-rule="evenodd" clip-rule="evenodd" d="M756.213 289.12L756.214 541.163L755.214 541.163L755.213 289.12C755.213 251.25 724.19 220.722 686.325 221.331C649.311 221.927 619.619 252.102 619.619 289.12L619.619 573L618.619 573L618.619 289.12C618.619 251.556 648.749 220.936 686.309 220.332C724.732 219.713 756.213 250.691 756.213 289.12Z" fill="black"/>
<path opacity="0.2" fill-rule="evenodd" clip-rule="evenodd" d="M606.81 450.356C730.896 450.356 831.488 349.764 831.488 225.678C831.488 101.592 730.896 1 606.81 1C482.723 1 382.132 101.592 382.132 225.678C382.132 349.764 482.723 450.356 606.81 450.356ZM606.81 451.356C731.448 451.356 832.488 350.316 832.488 225.678C832.488 101.039 731.448 0 606.81 0C482.171 0 381.132 101.039 381.132 225.678C381.132 350.316 482.171 451.356 606.81 451.356Z" fill="black"/>
<path opacity="0.2" fill-rule="evenodd" clip-rule="evenodd" d="M167.067 475.904C198.369 475.904 223.745 450.529 223.745 419.227C223.745 387.925 198.369 362.549 167.067 362.549C135.765 362.549 110.39 387.925 110.39 419.227C110.39 450.529 135.765 475.904 167.067 475.904ZM167.067 476.904C198.922 476.904 224.745 451.081 224.745 419.227C224.745 387.372 198.922 361.549 167.067 361.549C135.213 361.549 109.39 387.372 109.39 419.227C109.39 451.081 135.213 476.904 167.067 476.904Z" fill="black"/>
<path opacity="0.2" fill-rule="evenodd" clip-rule="evenodd" d="M295.97 194.871C323.21 194.871 345.293 172.789 345.293 145.549C345.293 118.309 323.21 96.2261 295.97 96.2261C268.73 96.2261 246.647 118.309 246.647 145.549C246.647 172.789 268.73 194.871 295.97 194.871ZM295.97 195.871C323.762 195.871 346.293 173.341 346.293 145.549C346.293 117.756 323.762 95.2261 295.97 95.2261C268.178 95.2261 245.647 117.756 245.647 145.549C245.647 173.341 268.178 195.871 295.97 195.871Z" fill="black"/>
</svg>
