<svg width="718" height="807" viewBox="0 0 718 807" fill="none" xmlns="http://www.w3.org/2000/svg">
<path opacity="0.2" fill-rule="evenodd" clip-rule="evenodd" d="M471.359 333.976L333.745 197.023L334.45 196.314L472.064 333.267C498.548 359.624 541.59 358.827 567.08 331.509C591.435 305.407 590.682 264.687 565.377 239.504L330.2 5.45577L330.905 4.74698L566.083 238.795C591.77 264.359 592.535 305.694 567.811 332.191C541.935 359.922 498.243 360.731 471.359 333.976Z" fill="black"/>
<path opacity="0.2" fill-rule="evenodd" clip-rule="evenodd" d="M333.115 565.041L138.967 565.508L138.964 564.508L333.112 564.041C370.476 563.951 400.348 532.952 399.055 495.611C397.82 459.932 368.494 431.672 332.794 431.758L1.00119 432.557L0.998789 431.557L332.791 430.758C369.031 430.671 398.801 459.358 400.055 495.577C401.367 533.482 371.043 564.95 333.115 565.041Z" fill="black"/>
<path opacity="0.2" fill-rule="evenodd" clip-rule="evenodd" d="M262.846 493.384L456.995 492.917L456.997 493.917L262.849 494.384C225.485 494.474 195.613 525.473 196.906 562.814C198.141 598.493 227.467 626.753 263.167 626.667L594.96 625.869L594.962 626.869L263.17 627.667C226.93 627.755 197.16 599.067 195.906 562.849C194.594 524.943 224.918 493.476 262.846 493.384Z" fill="black"/>
<path opacity="0.2" fill-rule="evenodd" clip-rule="evenodd" d="M576.033 179.2L713.647 316.153L712.942 316.862L575.328 179.908C548.844 153.552 505.802 154.349 480.312 181.667C455.956 207.769 456.71 248.489 482.015 273.672L717.192 507.72L716.487 508.429L481.309 274.381C455.622 248.817 454.857 207.481 479.581 180.985C505.456 153.254 549.149 152.445 576.033 179.2Z" fill="black"/>
<path opacity="0.2" fill-rule="evenodd" clip-rule="evenodd" d="M485.472 582.526C573.566 580.895 643.658 508.16 642.028 420.066C640.398 331.972 567.662 261.88 479.568 263.51C391.475 265.14 321.382 337.876 323.012 425.97C324.643 514.063 397.378 584.156 485.472 582.526ZM485.491 583.526C574.137 581.885 644.668 508.693 643.028 420.047C641.387 331.401 568.196 260.87 479.55 262.51C390.904 264.151 320.372 337.342 322.012 425.988C323.653 514.634 396.845 585.166 485.491 583.526Z" fill="black"/>
<path opacity="0.2" fill-rule="evenodd" clip-rule="evenodd" d="M604.095 580.875C635.695 580.29 660.839 554.198 660.254 522.597C659.669 490.997 633.578 465.853 601.977 466.438C570.376 467.023 545.233 493.114 545.818 524.715C546.402 556.316 572.494 581.459 604.095 580.875ZM604.113 581.874C636.266 581.279 661.849 554.732 661.254 522.579C660.659 490.426 634.111 464.843 601.958 465.438C569.805 466.033 544.223 492.581 544.818 524.734C545.413 556.887 571.96 582.469 604.113 581.874Z" fill="black"/>
<path opacity="0.2" fill-rule="evenodd" clip-rule="evenodd" d="M219.302 463.9C236.479 463.582 250.146 449.399 249.828 432.222C249.51 415.045 235.327 401.378 218.15 401.696C200.973 402.014 187.306 416.197 187.624 433.374C187.942 450.551 202.125 464.218 219.302 463.9ZM219.32 464.9C237.049 464.571 251.156 449.933 250.828 432.204C250.499 414.475 235.861 400.368 218.132 400.696C200.403 401.025 186.296 415.663 186.624 433.392C186.953 451.121 201.591 465.228 219.32 464.9Z" fill="black"/>
</svg>
