<svg width="909" height="824" viewBox="0 0 909 824" fill="none" xmlns="http://www.w3.org/2000/svg">
<path opacity="0.2" fill-rule="evenodd" clip-rule="evenodd" d="M317.777 148.802L577.992 148.802L577.992 149.802L317.777 149.802C269.237 149.802 229.888 189.151 229.888 237.69C229.888 286.23 269.237 325.579 317.777 325.579H754.769L754.769 326.579L317.777 326.579C268.685 326.579 228.888 286.782 228.888 237.69C228.888 188.599 268.685 148.802 317.777 148.802Z" fill="black"/>
<path opacity="0.2" fill-rule="evenodd" clip-rule="evenodd" d="M465.992 464.967L205.777 464.967L205.777 463.967L465.992 463.967C514.531 463.967 553.88 424.618 553.88 376.079C553.88 327.539 514.531 288.19 465.992 288.19H29.0001L29.0001 287.19L465.992 287.19C515.084 287.19 554.88 326.987 554.88 376.079C554.88 425.17 515.084 464.967 465.992 464.967Z" fill="black"/>
<path opacity="0.2" fill-rule="evenodd" clip-rule="evenodd" d="M260 540C314.124 540 358 496.124 358 442C358 387.876 314.124 344 260 344C205.876 344 162 387.876 162 442C162 496.124 205.876 540 260 540ZM260 541C314.676 541 359 496.676 359 442C359 387.324 314.676 343 260 343C205.324 343 161 387.324 161 442C161 496.676 205.324 541 260 541Z" fill="black"/>
<path opacity="0.2" fill-rule="evenodd" clip-rule="evenodd" d="M47 352C72.4051 352 93 331.405 93 306C93 280.595 72.4051 260 47 260C21.5949 260 1 280.595 1 306C1 331.405 21.5949 352 47 352ZM47 353C72.9574 353 94 331.957 94 306C94 280.043 72.9574 259 47 259C21.0426 259 0 280.043 0 306C0 331.957 21.0426 353 47 353Z" fill="black"/>
<path opacity="0.2" fill-rule="evenodd" clip-rule="evenodd" d="M662 787C756.43 787 833 709.556 833 614C833 518.444 756.43 441 662 441C567.57 441 491 518.444 491 614C491 709.556 567.57 787 662 787ZM662 788C756.993 788 834 710.098 834 614C834 517.902 756.993 440 662 440C567.007 440 490 517.902 490 614C490 710.098 567.007 788 662 788Z" fill="black"/>
<path opacity="0.2" fill-rule="evenodd" clip-rule="evenodd" d="M470.777 408.802L730.992 408.802L730.992 409.802L470.777 409.802C422.237 409.802 382.888 449.151 382.888 497.69C382.888 546.23 422.237 585.579 470.777 585.579H907.769L907.769 586.579L470.777 586.579C421.685 586.579 381.888 546.782 381.888 497.69C381.888 448.599 421.685 408.802 470.777 408.802Z" fill="black"/>
</svg>
